<svg xmlns="http://www.w3.org/2000/svg" xmlns:xlink="http://www.w3.org/1999/xlink" width="1032" height="695"><defs><linearGradient id="a" x1="17.919%" x2="103.773%" y1="89.31%" y2="-8.23%"><stop offset="0%" stop-color="#FF5353"/><stop offset="100%" stop-color="#FDD"/></linearGradient><path id="c" d="M555 426c-43.63 0-79-35.37-79-79s35.37-79 79-79 79 35.37 79 79-35.37 79-79 79zm0-9c38.66 0 70-31.34 70-70s-31.34-70-70-70-70 31.34-70 70 31.34 70 70 70z"/><filter id="b" width="132.3%" height="132.3%" x="-16.1%" y="-16.1%" filterUnits="objectBoundingBox"><feOffset in="SourceAlpha" result="shadowOffsetOuter1"/><feGaussianBlur in="shadowOffsetOuter1" result="shadowBlurOuter1" stdDeviation="8.5"/><feColorMatrix in="shadowBlurOuter1" values="0 0 0 0 1 0 0 0 0 0.325007891 0 0 0 0 0.325007891 0 0 0 0 0"/></filter><path id="e" d="M953 426c-43.63 0-79-35.37-79-79s35.37-79 79-79 79 35.37 79 79-35.37 79-79 79zm0-9c38.66 0 70-31.34 70-70s-31.34-70-70-70-70 31.34-70 70 31.34 70 70 70z"/><filter id="d" width="132.3%" height="132.3%" x="-16.1%" y="-16.1%" filterUnits="objectBoundingBox"><feOffset in="SourceAlpha" result="shadowOffsetOuter1"/><feGaussianBlur in="shadowOffsetOuter1" result="shadowBlurOuter1" stdDeviation="8.5"/><feColorMatrix in="shadowBlurOuter1" values="0 0 0 0 1 0 0 0 0 0.325007891 0 0 0 0 0.325007891 0 0 0 0 0"/></filter><path id="g" d="M79 158c-43.63 0-79-35.37-79-79S35.37 0 79 0s79 35.37 79 79-35.37 79-79 79zm0-9c38.66 0 70-31.34 70-70S117.66 9 79 9 9 40.34 9 79s31.34 70 70 70z"/><filter id="f" width="132.3%" height="132.3%" x="-16.1%" y="-16.1%" filterUnits="objectBoundingBox"><feOffset in="SourceAlpha" result="shadowOffsetOuter1"/><feGaussianBlur in="shadowOffsetOuter1" result="shadowBlurOuter1" stdDeviation="8.5"/><feColorMatrix in="shadowBlurOuter1" values="0 0 0 0 1 0 0 0 0 0.325007891 0 0 0 0 0.325007891 0 0 0 0 0"/></filter><path id="i" d="M79 158c-43.63 0-79-35.37-79-79S35.37 0 79 0s79 35.37 79 79-35.37 79-79 79zm0-9c38.66 0 70-31.34 70-70S117.66 9 79 9 9 40.34 9 79s31.34 70 70 70z"/><filter id="h" width="132.3%" height="132.3%" x="-16.1%" y="-16.1%" filterUnits="objectBoundingBox"><feOffset in="SourceAlpha" result="shadowOffsetOuter1"/><feGaussianBlur in="shadowOffsetOuter1" result="shadowBlurOuter1" stdDeviation="8.5"/><feColorMatrix in="shadowBlurOuter1" values="0 0 0 0 1 0 0 0 0 0.325007891 0 0 0 0 0.325007891 0 0 0 0 0"/></filter><linearGradient id="j" x1="-115.666%" x2="33.3%" y1="50%" y2="49.978%"><stop offset="0%" stop-color="#FF5353"/><stop offset="100%" stop-color="#FDD"/></linearGradient><linearGradient id="k" x1="-115.666%" x2="33.3%" y1="50%" y2="49.777%"><stop offset="0%" stop-color="#FF5353"/><stop offset="100%" stop-color="#FDD"/></linearGradient></defs><g fill="none" fill-rule="evenodd"><path fill="url(#a)" fill-rule="nonzero" d="M79 426c-43.63 0-79-35.37-79-79s35.37-79 79-79 79 35.37 79 79-35.37 79-79 79zm0-9c38.66 0 70-31.34 70-70s-31.34-70-70-70-70 31.34-70 70 31.34 70 70 70z"/><g fill-rule="nonzero"><use fill="#000" filter="url(#b)" xlink:href="#c"/><use fill="url(#a)" xlink:href="#c"/></g><g fill-rule="nonzero"><use fill="#000" filter="url(#d)" xlink:href="#e"/><use fill="url(#a)" xlink:href="#e"/></g><g fill-rule="nonzero" transform="translate(476 537)"><use fill="#000" filter="url(#f)" xlink:href="#g"/><use fill="url(#a)" xlink:href="#g"/><path fill="#FF5353" d="M50.394 85.325h4.011l4.158 8.274a47.814 47.814 0 0 1-.063-2.205v-6.069h3.528V99.5h-4.011l-4.179-8.274c.042.756.063 1.379.063 1.869V99.5h-3.507V85.325zm18.207 14.364c-1.666 0-2.905-.402-3.717-1.207-.812-.806-1.218-2.097-1.218-3.875 0-1.988.437-3.433 1.313-4.337.875-.903 2.166-1.354 3.874-1.354 1.694 0 2.943.399 3.749 1.197.805.798 1.207 2.086 1.207 3.864 0 2.016-.437 3.472-1.313 4.368-.875.896-2.173 1.344-3.895 1.344zm.168-2.688c.294 0 .525-.08.693-.242.168-.16.287-.433.357-.819.07-.385.105-.927.105-1.627 0-.728-.038-1.284-.116-1.67-.077-.385-.202-.654-.378-.808-.175-.154-.416-.231-.724-.231-.434 0-.735.189-.903.567-.168.378-.252 1.078-.252 2.1 0 .728.038 1.288.115 1.68.078.392.203.665.379.819.175.154.416.231.724.231zm15.855-12.075V99.5h-3.465v-.693c-.868.588-1.778.882-2.73.882-1.218 0-2.135-.399-2.751-1.197-.616-.798-.924-2.1-.924-3.906 0-3.766 1.743-5.649 5.229-5.649.364 0 .637.007.819.021v-4.032h3.822zm-3.822 6.825a6.908 6.908 0 0 0-.63-.021c-.532 0-.931.189-1.197.567-.266.378-.399 1.057-.399 2.037 0 .994.108 1.666.326 2.016.217.35.57.525 1.06.525.28 0 .56-.077.84-.231v-4.893zm10.101-2.835c1.442 0 2.492.371 3.15 1.113.658.742.987 1.918.987 3.528 0 .56-.028 1.092-.084 1.596h-5.187c.028.644.2 1.099.514 1.365.316.266.802.399 1.46.399.42 0 .794-.028 1.124-.084.329-.056.682-.133 1.06-.231h.756v2.73a14.89 14.89 0 0 1-3.339.357c-1.848 0-3.195-.402-4.042-1.207-.848-.806-1.271-2.118-1.271-3.938 0-1.904.392-3.318 1.176-4.242.784-.924 2.016-1.386 3.696-1.386zm-.063 2.289c-.364 0-.63.15-.798.451-.168.302-.259.837-.273 1.607h1.995c.028-.308.042-.518.042-.63 0-.952-.322-1.428-.966-1.428zm15.456 8.421c-1.582 0-2.852-.203-3.812-.609-.959-.406-1.683-1.127-2.173-2.163-.49-1.036-.735-2.506-.735-4.41 0-2.464.574-4.294 1.722-5.492 1.148-1.197 2.884-1.795 5.208-1.795.826 0 1.715.119 2.667.357v3.045h-.756a5.102 5.102 0 0 0-1.932-.357c-.854 0-1.505.315-1.953.945-.448.63-.672 1.68-.672 3.15 0 1.54.213 2.639.64 3.297.428.658 1.089.987 1.985.987.728 0 1.393-.112 1.995-.336h.756v3.045c-.574.112-1.071.196-1.491.252-.42.056-.903.084-1.449.084z"/></g><g fill-rule="nonzero" transform="translate(476)"><use fill="#000" filter="url(#h)" xlink:href="#i"/><use fill="url(#a)" xlink:href="#i"/><path fill="#FF5353" d="M49.466 85.325h4.011l4.158 8.274a47.814 47.814 0 0 1-.063-2.205v-6.069H61.1V99.5h-4.011l-4.179-8.274c.042.756.063 1.379.063 1.869V99.5h-3.507V85.325zm18.207 14.364c-1.666 0-2.905-.402-3.717-1.207-.812-.806-1.218-2.097-1.218-3.875 0-1.988.437-3.433 1.313-4.337.875-.903 2.166-1.354 3.874-1.354 1.694 0 2.943.399 3.749 1.197.805.798 1.207 2.086 1.207 3.864 0 2.016-.437 3.472-1.313 4.368-.875.896-2.173 1.344-3.895 1.344zm.168-2.688c.294 0 .525-.08.693-.242.168-.16.287-.433.357-.819.07-.385.105-.927.105-1.627 0-.728-.038-1.284-.115-1.67-.078-.385-.203-.654-.379-.808-.175-.154-.416-.231-.724-.231-.434 0-.735.189-.903.567-.168.378-.252 1.078-.252 2.1 0 .728.038 1.288.115 1.68.078.392.203.665.379.819.175.154.416.231.724.231zm15.855-12.075V99.5h-3.465v-.693c-.868.588-1.778.882-2.73.882-1.218 0-2.135-.399-2.751-1.197-.616-.798-.924-2.1-.924-3.906 0-3.766 1.743-5.649 5.229-5.649.364 0 .637.007.819.021v-4.032h3.822zm-3.822 6.825a6.908 6.908 0 0 0-.63-.021c-.532 0-.931.189-1.197.567-.266.378-.399 1.057-.399 2.037 0 .994.108 1.666.326 2.016.217.35.57.525 1.06.525.28 0 .56-.077.84-.231v-4.893zm10.101-2.835c1.442 0 2.492.371 3.15 1.113.658.742.987 1.918.987 3.528 0 .56-.028 1.092-.084 1.596h-5.187c.028.644.2 1.099.515 1.365s.801.399 1.459.399c.42 0 .794-.028 1.124-.084.329-.056.682-.133 1.06-.231h.756v2.73a14.89 14.89 0 0 1-3.339.357c-1.848 0-3.195-.402-4.042-1.207-.848-.806-1.271-2.118-1.271-3.938 0-1.904.392-3.318 1.176-4.242.784-.924 2.016-1.386 3.696-1.386zm-.063 2.289c-.364 0-.63.15-.798.451-.168.302-.259.837-.273 1.607h1.995c.028-.308.042-.518.042-.63 0-.952-.322-1.428-.966-1.428zm21.672 7.455v.84h-4.158l-.63-2.898h-4.179l-.693 2.898h-3.738v-.84l3.591-13.335h6.195l3.612 13.335zm-5.46-5.103l-1.344-6.048-1.449 6.048h2.793z"/></g><path fill="#FF5353" fill-rule="nonzero" d="M904.504 353.665v-.84h3.864l1.218 11.361 1.89-11.361h4.473l1.974 11.361 1.071-11.361h3.78v.84L920.758 367h-5.481l-1.785-10.521L911.707 367h-5.313l-1.89-13.335zm23.415 2.751c1.148 0 2.068.14 2.762.42.693.28 1.203.742 1.532 1.386.33.644.494 1.519.494 2.625V367h-3.108v-.735a4.73 4.73 0 0 1-1.239.661 4.47 4.47 0 0 1-1.554.263c-1.022 0-1.799-.27-2.331-.809s-.798-1.277-.798-2.215c0-1.064.322-1.872.966-2.425.644-.554 1.673-.83 3.087-.83.224 0 .609.021 1.155.063v-.042c0-.686-.13-1.155-.389-1.407s-.71-.378-1.354-.378c-.336 0-.661.035-.977.105-.315.07-.731.182-1.249.336h-.756v-2.73c1.47-.294 2.723-.441 3.759-.441zm-.756 7.35c0 .644.315.966.945.966.294 0 .553-.042.777-.126v-1.827a5.778 5.778 0 0 0-.609-.042c-.35 0-.623.087-.819.262-.196.176-.294.431-.294.767zm11.739 3.423c-1.26 0-2.187-.27-2.783-.809-.595-.539-.892-1.417-.892-2.635v-4.347h-1.491v-2.583h1.386c.364 0 .626-.077.788-.231.16-.154.241-.406.241-.756v-1.302h2.982v2.289h2.562v2.583h-2.562v3.78c0 .392.077.672.231.84.154.168.392.252.714.252.28 0 .567-.049.861-.147h.756v2.73c-.826.224-1.757.336-2.793.336zm8.694 0c-1.736 0-3.024-.399-3.864-1.197-.84-.798-1.26-2.114-1.26-3.948 0-1.862.448-3.265 1.344-4.21.896-.946 2.142-1.418 3.738-1.418.994 0 1.785.077 2.373.231v2.73h-.756c-.462-.154-.847-.231-1.155-.231-.546 0-.952.185-1.218.556-.266.372-.399 1.054-.399 2.048 0 1.008.14 1.711.42 2.11.28.4.7.599 1.26.599.322 0 .7-.077 1.134-.231h.756v2.73c-.28.056-.644.108-1.092.157a11.8 11.8 0 0 1-1.281.074zm10.395-10.773c1.148 0 1.984.315 2.51.945.525.63.787 1.631.787 3.003V367h-3.822v-5.922c0-.602-.084-1.025-.252-1.27-.168-.246-.455-.368-.861-.368-.336 0-.707.084-1.113.252V367h-3.822v-14.574h3.822v2.919l-.042 1.743c.98-.448 1.911-.672 2.793-.672zm14.532-3.99V367h-3.465v-.693c-.868.588-1.778.882-2.73.882-1.218 0-2.135-.399-2.751-1.197-.616-.798-.924-2.1-.924-3.906 0-3.766 1.743-5.649 5.229-5.649.364 0 .637.007.819.021v-4.032h3.822zm-3.822 6.825a6.908 6.908 0 0 0-.63-.021c-.532 0-.931.189-1.197.567-.266.378-.399 1.057-.399 2.037 0 .994.108 1.666.326 2.016.217.35.57.525 1.06.525.28 0 .56-.077.84-.231v-4.893zm10.164 7.938c-1.666 0-2.905-.402-3.717-1.208-.812-.805-1.218-2.096-1.218-3.874 0-1.988.437-3.433 1.313-4.337.875-.903 2.166-1.354 3.874-1.354 1.694 0 2.943.399 3.749 1.197.805.798 1.207 2.086 1.207 3.864 0 2.016-.437 3.472-1.313 4.368-.875.896-2.173 1.344-3.895 1.344zm.168-2.688c.294 0 .525-.08.693-.241.168-.162.287-.434.357-.82.07-.385.105-.927.105-1.627 0-.728-.038-1.284-.115-1.67-.077-.385-.203-.654-.379-.808-.175-.154-.416-.231-.724-.231-.434 0-.735.189-.903.567-.168.378-.252 1.078-.252 2.1 0 .728.038 1.288.115 1.68.078.392.203.665.379.819.175.154.416.231.724.231zm11.109.252c2.744 0 4.116.938 4.116 2.814 0 1.022-.486 1.848-1.46 2.478-.973.63-2.397.945-4.273.945-1.344 0-2.334-.206-2.971-.62-.638-.413-.956-.983-.956-1.711 0-1.022.623-1.792 1.869-2.31-.196-.238-.294-.553-.294-.945 0-.574.273-1.253.819-2.037-.686-.224-1.204-.588-1.554-1.092-.35-.504-.525-1.162-.525-1.974 0-1.19.413-2.128 1.239-2.814.826-.686 2.016-1.036 3.57-1.05l.504-2.268h3.213v.84l-1.47 1.743c.63.224 1.099.584 1.407 1.082.308.497.462 1.151.462 1.963 0 1.218-.392 2.163-1.176 2.835-.784.672-1.967 1.008-3.549 1.008h-.294a1.991 1.991 0 0 0-.063.483c0 .42.378.63 1.134.63h.252zm-.777-6.174c-.378 0-.647.126-.808.378-.162.252-.242.609-.242 1.071 0 .518.08.892.241 1.123.162.232.431.347.809.347.392 0 .668-.126.83-.378.16-.252.241-.602.241-1.05 0-.532-.08-.913-.242-1.144-.16-.232-.437-.347-.829-.347zm-.294 10.248c.504 0 .892-.08 1.165-.241a.788.788 0 0 0 .41-.725c0-.28-.087-.472-.262-.577-.176-.106-.466-.158-.872-.158h-.252a7.697 7.697 0 0 1-1.491-.126c-.21.238-.315.518-.315.84 0 .336.122.584.368.746.245.16.661.241 1.249.241zm9.009-1.638c-.56 0-1.13-.038-1.712-.115-.58-.077-1.046-.172-1.396-.284v-2.73h.63c1.05.308 1.939.462 2.667.462.322 0 .553-.038.693-.115.14-.077.21-.207.21-.389 0-.224-.105-.406-.315-.546-.21-.14-.567-.322-1.071-.546a11.436 11.436 0 0 1-1.428-.693 3.083 3.083 0 0 1-.987-.966c-.28-.42-.42-.959-.42-1.617 0-1.05.367-1.851 1.102-2.404.736-.554 1.712-.83 2.93-.83 1.204 0 2.289.161 3.255.483v2.73h-.609a8.65 8.65 0 0 0-1.176-.368 5.12 5.12 0 0 0-1.197-.157c-.518 0-.777.154-.777.462 0 .168.098.315.294.441.196.126.518.28.966.462.588.238 1.082.476 1.48.714a3.41 3.41 0 0 1 1.05 1.008c.302.434.452.987.452 1.659 0 2.226-1.547 3.339-4.641 3.339zm-937.772-1.063c-1.582 0-2.852-.203-3.812-.609-.959-.406-1.683-1.127-2.173-2.163-.49-1.036-.735-2.506-.735-4.41 0-2.464.574-4.294 1.722-5.492 1.148-1.197 2.884-1.795 5.208-1.795.826 0 1.715.119 2.667.357v3.045h-.756a5.102 5.102 0 0 0-1.932-.357c-.854 0-1.505.315-1.953.945-.448.63-.672 1.68-.672 3.15 0 1.54.213 2.639.64 3.297.428.658 1.089.987 1.985.987.728 0 1.393-.112 1.995-.336h.756v3.045c-.574.112-1.071.196-1.491.252-.42.056-.903.084-1.449.084zm4.431-14.7h3.822V366h-3.822v-14.574zm5.712 4.179h3.822V366h-3.822v-10.395zm-.147-4.473h4.032v3.024h-4.032v-3.024zm10.248 4.284c1.442 0 2.492.371 3.15 1.113.658.742.987 1.918.987 3.528 0 .56-.028 1.092-.084 1.596h-5.187c.028.644.2 1.099.514 1.365.316.266.802.399 1.46.399.42 0 .794-.028 1.124-.084.329-.056.682-.133 1.06-.231h.756v2.73a14.89 14.89 0 0 1-3.339.357c-1.848 0-3.195-.402-4.042-1.208-.848-.805-1.271-2.117-1.271-3.937 0-1.904.392-3.318 1.176-4.242.784-.924 2.016-1.386 3.696-1.386zm-.063 2.289c-.364 0-.63.15-.798.452-.168.3-.259.836-.273 1.606h1.995c.028-.308.042-.518.042-.63 0-.952-.322-1.428-.966-1.428zm12.222-2.289c1.148 0 1.984.315 2.51.945.525.63.787 1.631.787 3.003V366h-3.822v-5.922c0-.602-.084-1.025-.252-1.27-.168-.246-.455-.368-.861-.368-.336 0-.707.084-1.113.252V366h-3.822v-10.395h3.192v.798a7.832 7.832 0 0 1 1.575-.693 5.804 5.804 0 0 1 1.806-.294zm9.513 10.773c-1.26 0-2.187-.27-2.782-.809-.596-.539-.893-1.417-.893-2.635v-4.347h-1.491v-2.583h1.386c.364 0 .626-.077.787-.231.162-.154.242-.406.242-.756v-1.302h2.982v2.289h2.562v2.583h-2.562v3.78c0 .392.077.672.231.84.154.168.392.252.714.252.28 0 .567-.049.861-.147h.756v2.73c-.826.224-1.757.336-2.793.336z"/><text fill="#FFF" font-family="NewsSans-Regular, NewsSans" font-size="18"><tspan x="185" y="290">RPC Request</tspan> <tspan x="185" y="311">+ signers: A,C</tspan></text><g fill-rule="nonzero"><path fill="#FF5353" d="M299.216 379.604V380h-1.494l-3.078-5.148h-1.494V380h-1.494v-12.222h3.042c1.488 0 2.565.288 3.231.864.666.576.999 1.416.999 2.52 0 1.908-.936 3.078-2.808 3.51l3.096 4.932zm-4.734-5.922c1.02 0 1.764-.186 2.232-.558.468-.372.702-.99.702-1.854 0-.564-.09-1.008-.27-1.332-.18-.324-.483-.561-.909-.711-.426-.15-1.005-.225-1.737-.225h-1.35v4.68h1.332zm7.092-5.904h2.916c1.416 0 2.481.294 3.195.882.714.588 1.071 1.512 1.071 2.772 0 2.736-1.464 4.104-4.392 4.104h-1.296V380h-1.494v-12.222zm2.97 6.534c.936 0 1.62-.207 2.052-.621.432-.414.648-1.107.648-2.079 0-.972-.228-1.65-.684-2.034-.456-.384-1.194-.576-2.214-.576h-1.278v5.31h1.476zm10.818 5.832c-1.692 0-2.943-.489-3.753-1.467-.81-.978-1.215-2.475-1.215-4.491 0-2.22.453-3.855 1.359-4.905.906-1.05 2.271-1.575 4.095-1.575.696 0 1.386.09 2.07.27v1.242h-.432a8.74 8.74 0 0 0-.927-.216 6.035 6.035 0 0 0-.999-.072c-1.224 0-2.139.399-2.745 1.197-.606.798-.909 2.091-.909 3.879 0 1.716.306 2.961.918 3.735.612.774 1.59 1.161 2.934 1.161.552 0 1.164-.096 1.836-.288h.432v1.242c-.648.192-1.536.288-2.664.288zm16.47-.54V380h-1.494l-3.078-5.148h-1.494V380h-1.494v-12.222h3.042c1.488 0 2.565.288 3.231.864.666.576.999 1.416.999 2.52 0 1.908-.936 3.078-2.808 3.51l3.096 4.932zm-4.734-5.922c1.02 0 1.764-.186 2.232-.558.468-.372.702-.99.702-1.854 0-.564-.09-1.008-.27-1.332-.18-.324-.483-.561-.909-.711-.426-.15-1.005-.225-1.737-.225h-1.35v4.68h1.332zm9.9-2.538c1.032 0 1.794.297 2.286.891.492.594.738 1.557.738 2.889 0 .444-.012.786-.036 1.026h-5.184c.012 1.08.252 1.851.72 2.313.468.462 1.14.693 2.016.693.6 0 1.236-.132 1.908-.396h.432v1.17c-.78.252-1.656.378-2.628.378-1.212 0-2.16-.324-2.844-.972-.684-.648-1.026-1.722-1.026-3.222 0-1.656.303-2.865.909-3.627.606-.762 1.509-1.143 2.709-1.143zm-.18 1.116c-1.296 0-1.968.876-2.016 2.628h3.888c.048-.888-.084-1.548-.396-1.98-.312-.432-.804-.648-1.476-.648zm7.092 7.83c-.324 0-.705-.03-1.143-.09a7.093 7.093 0 0 1-1.071-.216v-1.152h.432c.372.096.714.171 1.026.225.312.054.654.081 1.026.081.504 0 .9-.114 1.188-.342.288-.228.432-.528.432-.9 0-.432-.144-.756-.432-.972-.288-.216-.732-.438-1.332-.666a9.872 9.872 0 0 1-1.197-.513 2.106 2.106 0 0 1-.774-.72c-.21-.318-.315-.729-.315-1.233 0-.744.252-1.338.756-1.782.504-.444 1.224-.666 2.16-.666.6 0 1.29.108 2.07.324v1.152h-.414c-.672-.216-1.26-.324-1.764-.324-.456 0-.81.102-1.062.306-.252.204-.378.486-.378.846 0 .396.138.693.414.891.276.198.708.405 1.296.621.492.168.894.336 1.206.504.312.168.579.414.801.738.222.324.333.75.333 1.278 0 .816-.27 1.455-.81 1.917-.54.462-1.356.693-2.448.693zm8.712-8.946c1.068 0 1.887.342 2.457 1.026.57.684.855 1.74.855 3.168 0 1.716-.348 2.94-1.044 3.672-.696.732-1.74 1.098-3.132 1.098-.264 0-.684-.024-1.26-.072v3.294h-1.404v-12.078h1.224v.594a3.49 3.49 0 0 1 1.071-.522c.402-.12.813-.18 1.233-.18zm-.666 7.812c.828 0 1.458-.249 1.89-.747.432-.498.648-1.365.648-2.601 0-1.2-.192-2.046-.576-2.538-.384-.492-.942-.738-1.674-.738-.252 0-.534.042-.846.126a4.794 4.794 0 0 0-.9.342v6.03c.612.084 1.098.126 1.458.126zm9.216 1.152c-1.164 0-2.046-.366-2.646-1.098-.6-.732-.9-1.788-.9-3.168 0-1.572.339-2.748 1.017-3.528.678-.78 1.635-1.17 2.871-1.17 1.164 0 2.046.363 2.646 1.089.6.726.9 1.773.9 3.141 0 1.584-.339 2.769-1.017 3.555-.678.786-1.635 1.179-2.871 1.179zm.162-1.152c1.524 0 2.286-1.11 2.286-3.33 0-2.22-.756-3.33-2.268-3.33-1.524 0-2.286 1.104-2.286 3.312 0 2.232.756 3.348 2.268 3.348zm10.098-7.812c.948 0 1.641.252 2.079.756.438.504.657 1.29.657 2.358V380h-1.386v-5.454c0-.78-.15-1.341-.45-1.683-.3-.342-.78-.513-1.44-.513-.732 0-1.476.156-2.232.468V380h-1.386v-8.748h1.296v.576a5.867 5.867 0 0 1 1.332-.495 6.285 6.285 0 0 1 1.53-.189zm7.038 8.946c-.324 0-.705-.03-1.143-.09a7.093 7.093 0 0 1-1.071-.216v-1.152h.432c.372.096.714.171 1.026.225.312.054.654.081 1.026.081.504 0 .9-.114 1.188-.342.288-.228.432-.528.432-.9 0-.432-.144-.756-.432-.972-.288-.216-.732-.438-1.332-.666a9.872 9.872 0 0 1-1.197-.513 2.106 2.106 0 0 1-.774-.72c-.21-.318-.315-.729-.315-1.233 0-.744.252-1.338.756-1.782.504-.444 1.224-.666 2.16-.666.6 0 1.29.108 2.07.324v1.152h-.414c-.672-.216-1.26-.324-1.764-.324-.456 0-.81.102-1.062.306-.252.204-.378.486-.378.846 0 .396.138.693.414.891.276.198.708.405 1.296.621.492.168.894.336 1.206.504.312.168.579.414.801.738.222.324.333.75.333 1.278 0 .816-.27 1.455-.81 1.917-.54.462-1.356.693-2.448.693zm8.442-8.946c1.032 0 1.794.297 2.286.891.492.594.738 1.557.738 2.889 0 .444-.012.786-.036 1.026h-5.184c.012 1.08.252 1.851.72 2.313.468.462 1.14.693 2.016.693.6 0 1.236-.132 1.908-.396h.432v1.17c-.78.252-1.656.378-2.628.378-1.212 0-2.16-.324-2.844-.972-.684-.648-1.026-1.722-1.026-3.222 0-1.656.303-2.865.909-3.627.606-.762 1.509-1.143 2.709-1.143zm-.18 1.116c-1.296 0-1.968.876-2.016 2.628h3.888c.048-.888-.084-1.548-.396-1.98-.312-.432-.804-.648-1.476-.648z"/><path fill="#FFF" d="M295.31 392.054v3.348h3.168v1.134h-3.168v3.312h-1.278v-3.312h-3.168v-1.134h3.168v-3.348h1.278zm24.292 8.496l.144-11.394v-.378h2.07l2.484 7.254c.204.66.378 1.248.522 1.764.168-.672.336-1.26.504-1.764l2.394-7.254h2.07v.396l.126 11.43V401h-1.368l-.036-9.18v-2.088c-.168.708-.324 1.254-.468 1.638l-2.52 7.488h-1.53l-2.358-6.876a37.418 37.418 0 0 1-.702-2.25c.012.612.018 1.53.018 2.754l-.036 8.514h-1.314v-.45zM336 392.144c1.032 0 1.794.297 2.286.891.492.594.738 1.557.738 2.889 0 .444-.012.786-.036 1.026h-5.184c.012 1.08.252 1.851.72 2.313.468.462 1.14.693 2.016.693.6 0 1.236-.132 1.908-.396h.432v1.17c-.78.252-1.656.378-2.628.378-1.212 0-2.16-.324-2.844-.972-.684-.648-1.026-1.722-1.026-3.222 0-1.656.303-2.865.909-3.627.606-.762 1.509-1.143 2.709-1.143zm-.18 1.116c-1.296 0-1.968.876-2.016 2.628h3.888c.048-.888-.084-1.548-.396-1.98-.312-.432-.804-.648-1.476-.648zm9.756.306c-.444 0-.933.054-1.467.162a9.427 9.427 0 0 0-1.467.414V401h-1.386v-8.748h1.296v.918c.72-.444 1.548-.768 2.484-.972h.54v1.368zm8.568 6.984v.45h-1.368l-3.51-4.086h-.468V401h-1.386v-12.582h1.386v7.344h.45l3.258-3.51h1.278v.45l-3.33 3.564 3.69 4.284zm1.692-12.132h1.386V401h-1.386v-12.582zm7.218 3.726c1.032 0 1.794.297 2.286.891.492.594.738 1.557.738 2.889 0 .444-.012.786-.036 1.026h-5.184c.012 1.08.252 1.851.72 2.313.468.462 1.14.693 2.016.693.6 0 1.236-.132 1.908-.396h.432v1.17c-.78.252-1.656.378-2.628.378-1.212 0-2.16-.324-2.844-.972-.684-.648-1.026-1.722-1.026-3.222 0-1.656.303-2.865.909-3.627.606-.762 1.509-1.143 2.709-1.143zm-.18 1.116c-1.296 0-1.968.876-2.016 2.628h3.888c.048-.888-.084-1.548-.396-1.98-.312-.432-.804-.648-1.476-.648zm5.724-4.482h2.916c1.416 0 2.481.294 3.195.882.714.588 1.071 1.512 1.071 2.772 0 2.736-1.464 4.104-4.392 4.104h-1.296V401h-1.494v-12.222zm2.97 6.534c.936 0 1.62-.207 2.052-.621.432-.414.648-1.107.648-2.079 0-.972-.228-1.65-.684-2.034-.456-.384-1.194-.576-2.214-.576h-1.278v5.31h1.476zm10.566-1.746c-.444 0-.933.054-1.467.162a9.427 9.427 0 0 0-1.467.414V401h-1.386v-8.748h1.296v.918c.72-.444 1.548-.768 2.484-.972h.54v1.368zm4.86 7.542c-1.164 0-2.046-.366-2.646-1.098-.6-.732-.9-1.788-.9-3.168 0-1.572.339-2.748 1.017-3.528.678-.78 1.635-1.17 2.871-1.17 1.164 0 2.046.363 2.646 1.089.6.726.9 1.773.9 3.141 0 1.584-.339 2.769-1.017 3.555-.678.786-1.635 1.179-2.871 1.179zm.162-1.152c1.524 0 2.286-1.11 2.286-3.33 0-2.22-.756-3.33-2.268-3.33-1.524 0-2.286 1.104-2.286 3.312 0 2.232.756 3.348 2.268 3.348zm8.964 1.152c-1.164 0-2.046-.366-2.646-1.098-.6-.732-.9-1.788-.9-3.168 0-1.572.339-2.748 1.017-3.528.678-.78 1.635-1.17 2.871-1.17 1.164 0 2.046.363 2.646 1.089.6.726.9 1.773.9 3.141 0 1.584-.339 2.769-1.017 3.555-.678.786-1.635 1.179-2.871 1.179zm.162-1.152c1.524 0 2.286-1.11 2.286-3.33 0-2.22-.756-3.33-2.268-3.33-1.524 0-2.286 1.104-2.286 3.312 0 2.232.756 3.348 2.268 3.348zm6.642-6.462h-1.602v-1.152h1.602v-1.44c0-1.716.858-2.574 2.574-2.574.456 0 1.074.078 1.854.234v1.134h-.45c-.6-.144-1.08-.216-1.44-.216-.408 0-.702.102-.882.306-.18.204-.27.516-.27.936v1.62h2.25v1.152h-2.25V401h-1.386v-7.506zm-107.614 19.56v3.348h3.168v1.134h-3.168v3.312h-1.278v-3.312h-3.168v-1.134h3.168v-3.348h1.278zM319.674 422v-12.222h3.33c1.188-.024 2.1.213 2.736.711.636.498.954 1.245.954 2.241 0 .696-.171 1.26-.513 1.692a2.547 2.547 0 0 1-1.305.882v.054c.816.06 1.455.327 1.917.801.462.474.693 1.161.693 2.061 0 1.332-.387 2.295-1.161 2.889-.774.594-1.947.891-3.519.891h-3.132zm3.168-7.074c.84 0 1.449-.171 1.827-.513.378-.342.567-.849.567-1.521 0-.66-.195-1.14-.585-1.44-.39-.3-1.029-.45-1.917-.45h-1.566v3.924h1.674zm.288 5.868c.96 0 1.674-.183 2.142-.549.468-.366.702-.987.702-1.863 0-.84-.234-1.443-.702-1.809-.468-.366-1.176-.549-2.124-.549h-1.98v4.77h1.962zm6.534-11.376h1.386V422h-1.386v-12.582zm7.146 12.69c-1.164 0-2.046-.366-2.646-1.098-.6-.732-.9-1.788-.9-3.168 0-1.572.339-2.748 1.017-3.528.678-.78 1.635-1.17 2.871-1.17 1.164 0 2.046.363 2.646 1.089.6.726.9 1.773.9 3.141 0 1.584-.339 2.769-1.017 3.555-.678.786-1.635 1.179-2.871 1.179zm.162-1.152c1.524 0 2.286-1.11 2.286-3.33 0-2.22-.756-3.33-2.268-3.33-1.524 0-2.286 1.104-2.286 3.312 0 2.232.756 3.348 2.268 3.348zm9.108 1.152c-1.176 0-2.085-.336-2.727-1.008-.642-.672-.963-1.764-.963-3.276 0-1.608.318-2.79.954-3.546.636-.756 1.596-1.134 2.88-1.134.324 0 .666.033 1.026.099s.666.147.918.243v1.152h-.432a10.33 10.33 0 0 0-.909-.252 4.02 4.02 0 0 0-.873-.09c-.66 0-1.179.261-1.557.783-.378.522-.567 1.359-.567 2.511 0 1.26.207 2.136.621 2.628.414.492 1.017.738 1.809.738.516 0 1.032-.09 1.548-.27h.45v1.17a9.712 9.712 0 0 1-2.178.252zm10.944-.558v.45h-1.368l-3.51-4.086h-.468V422h-1.386v-12.582h1.386v7.344h.45l3.258-3.51h1.278v.45l-3.33 3.564 3.69 4.284zm1.98-11.772h1.494v5.274h5.688v-5.274h1.494V422h-1.494v-5.706h-5.688V422h-1.494v-12.222zm14.796 3.366c1.032 0 1.794.297 2.286.891.492.594.738 1.557.738 2.889 0 .444-.012.786-.036 1.026h-5.184c.012 1.08.252 1.851.72 2.313.468.462 1.14.693 2.016.693.6 0 1.236-.132 1.908-.396h.432v1.17c-.78.252-1.656.378-2.628.378-1.212 0-2.16-.324-2.844-.972-.684-.648-1.026-1.722-1.026-3.222 0-1.656.303-2.865.909-3.627.606-.762 1.509-1.143 2.709-1.143zm-.18 1.116c-1.296 0-1.968.876-2.016 2.628h3.888c.048-.888-.084-1.548-.396-1.98-.312-.432-.804-.648-1.476-.648zm8.226-1.116c1.068 0 1.848.243 2.34.729.492.486.738 1.239.738 2.259V422h-1.26v-.756c-.732.576-1.602.864-2.61.864-.792 0-1.422-.219-1.89-.657-.468-.438-.702-1.017-.702-1.737 0-.888.291-1.578.873-2.07.582-.492 1.431-.738 2.547-.738.588 0 1.134.06 1.638.18v-.576c0-.828-.144-1.404-.432-1.728-.288-.324-.792-.486-1.512-.486-.372 0-.735.039-1.089.117-.354.078-.759.189-1.215.333h-.432v-1.152c1.128-.3 2.13-.45 3.006-.45zm-1.98 6.408c0 .432.138.777.414 1.035.276.258.66.387 1.152.387.36 0 .723-.06 1.089-.18s.699-.276.999-.468v-2.142a8.46 8.46 0 0 0-1.89-.198c-1.176 0-1.764.522-1.764 1.566zm13.824-10.134V422h-1.206v-.594a3.49 3.49 0 0 1-1.071.522c-.402.12-.813.18-1.233.18-1.068 0-1.887-.342-2.457-1.026-.57-.684-.855-1.74-.855-3.168 0-1.716.348-2.94 1.044-3.672.696-.732 1.74-1.098 3.132-1.098.264 0 .684.024 1.26.072v-3.798h1.386zm-1.386 4.986a11.326 11.326 0 0 0-1.458-.126c-.828 0-1.458.252-1.89.756-.432.504-.648 1.374-.648 2.61 0 1.2.192 2.046.576 2.538.384.492.942.738 1.674.738.252 0 .534-.042.846-.126.312-.084.612-.198.9-.342v-6.048zm7.056-1.26c1.032 0 1.794.297 2.286.891.492.594.738 1.557.738 2.889 0 .444-.012.786-.036 1.026h-5.184c.012 1.08.252 1.851.72 2.313.468.462 1.14.693 2.016.693.6 0 1.236-.132 1.908-.396h.432v1.17c-.78.252-1.656.378-2.628.378-1.212 0-2.16-.324-2.844-.972-.684-.648-1.026-1.722-1.026-3.222 0-1.656.303-2.865.909-3.627.606-.762 1.509-1.143 2.709-1.143zm-.18 1.116c-1.296 0-1.968.876-2.016 2.628h3.888c.048-.888-.084-1.548-.396-1.98-.312-.432-.804-.648-1.476-.648zm9.756.306c-.444 0-.933.054-1.467.162a9.427 9.427 0 0 0-1.467.414V422h-1.386v-8.748h1.296v.918c.72-.444 1.548-.768 2.484-.972h.54v1.368zM295.31 434.054v3.348h3.168v1.134h-3.168v3.312h-1.278v-3.312h-3.168v-1.134h3.168v-3.348h1.278zm26.506 9.09c-.504 0-1.05-.048-1.638-.144-.588-.096-1.05-.204-1.386-.324v-1.332h.45c.48.18.936.318 1.368.414.432.096.924.144 1.476.144.732 0 1.308-.177 1.728-.531.42-.354.63-.849.63-1.485 0-.432-.108-.798-.324-1.098-.216-.3-.48-.546-.792-.738a11.79 11.79 0 0 0-1.314-.666c-.648-.288-1.167-.555-1.557-.801a3.238 3.238 0 0 1-.999-1.017c-.276-.432-.414-.972-.414-1.62 0-1.008.327-1.8.981-2.376.654-.576 1.605-.864 2.853-.864.9 0 1.8.15 2.7.45v1.296h-.45c-.828-.348-1.626-.522-2.394-.522-.684 0-1.218.165-1.602.495-.384.33-.576.777-.576 1.341 0 .42.105.774.315 1.062.21.288.471.525.783.711.312.186.744.405 1.296.657.648.3 1.17.576 1.566.828.396.252.735.597 1.017 1.035.282.438.423.981.423 1.629 0 1.068-.342 1.911-1.026 2.529-.684.618-1.722.927-3.114.927zm6.318-8.892h1.386V443h-1.386v-8.748zm-.108-3.042h1.602v1.62h-1.602v-1.62zm7.56 10.386c1.02 0 1.785.189 2.295.567.51.378.765.885.765 1.521a2.17 2.17 0 0 1-.504 1.422c-.336.408-.825.729-1.467.963-.642.234-1.401.351-2.277.351-1.02 0-1.797-.183-2.331-.549-.534-.366-.801-.861-.801-1.485 0-.948.606-1.752 1.818-2.412a1.45 1.45 0 0 1-.108-.576c0-.396.108-.852.324-1.368a2.228 2.228 0 0 1-1.179-.972c-.27-.456-.405-1.038-.405-1.746 0-.912.282-1.665.846-2.259.564-.594 1.368-.891 2.412-.891h.252l.63-2.178h1.44v.45l-1.098 1.908c.552.18.975.504 1.269.972.294.468.441 1.068.441 1.8 0 .912-.279 1.665-.837 2.259-.558.594-1.359.891-2.403.891-.216 0-.378-.006-.486-.018-.06.276-.09.504-.09.684 0 .24.072.411.216.513.144.102.384.153.72.153h.558zm-.756-6.336c-.588 0-1.023.168-1.305.504-.282.336-.423.804-.423 1.404 0 .66.132 1.158.396 1.494.264.336.696.504 1.296.504.576 0 1.008-.168 1.296-.504.288-.336.432-.804.432-1.404 0-.66-.132-1.158-.396-1.494-.264-.336-.696-.504-1.296-.504zm-.198 10.026c.828 0 1.467-.132 1.917-.396.45-.264.675-.606.675-1.026 0-.768-.618-1.152-1.854-1.152h-.594c-.42 0-.768-.054-1.044-.162-.372.204-.654.444-.846.72a1.467 1.467 0 0 0-.288.846c0 .78.678 1.17 2.034 1.17zm9.774-11.142c.948 0 1.641.252 2.079.756.438.504.657 1.29.657 2.358V443h-1.386v-5.454c0-.78-.15-1.341-.45-1.683-.3-.342-.78-.513-1.44-.513-.732 0-1.476.156-2.232.468V443h-1.386v-8.748h1.296v.576a5.867 5.867 0 0 1 1.332-.495 6.285 6.285 0 0 1 1.53-.189zm8.478 0c1.032 0 1.794.297 2.286.891.492.594.738 1.557.738 2.889 0 .444-.012.786-.036 1.026h-5.184c.012 1.08.252 1.851.72 2.313.468.462 1.14.693 2.016.693.6 0 1.236-.132 1.908-.396h.432v1.17c-.78.252-1.656.378-2.628.378-1.212 0-2.16-.324-2.844-.972-.684-.648-1.026-1.722-1.026-3.222 0-1.656.303-2.865.909-3.627.606-.762 1.509-1.143 2.709-1.143zm-.18 1.116c-1.296 0-1.968.876-2.016 2.628h3.888c.048-.888-.084-1.548-.396-1.98-.312-.432-.804-.648-1.476-.648zm11.574-4.842V443h-1.206v-.594a3.49 3.49 0 0 1-1.071.522c-.402.12-.813.18-1.233.18-1.068 0-1.887-.342-2.457-1.026-.57-.684-.855-1.74-.855-3.168 0-1.716.348-2.94 1.044-3.672.696-.732 1.74-1.098 3.132-1.098.264 0 .684.024 1.26.072v-3.798h1.386zm-1.386 4.986a11.326 11.326 0 0 0-1.458-.126c-.828 0-1.458.252-1.89.756-.432.504-.648 1.374-.648 2.61 0 1.2.192 2.046.576 2.538.384.492.942.738 1.674.738.252 0 .534-.042.846-.126.312-.084.612-.198.9-.342v-6.048zm8.154 7.596v-12.222h3.33c1.188-.024 2.1.213 2.736.711.636.498.954 1.245.954 2.241 0 .696-.171 1.26-.513 1.692a2.547 2.547 0 0 1-1.305.882v.054c.816.06 1.455.327 1.917.801.462.474.693 1.161.693 2.061 0 1.332-.387 2.295-1.161 2.889-.774.594-1.947.891-3.519.891h-3.132zm3.168-7.074c.84 0 1.449-.171 1.827-.513.378-.342.567-.849.567-1.521 0-.66-.195-1.14-.585-1.44-.39-.3-1.029-.45-1.917-.45h-1.566v3.924h1.674zm.288 5.868c.96 0 1.674-.183 2.142-.549.468-.366.702-.987.702-1.863 0-.84-.234-1.443-.702-1.809-.468-.366-1.176-.549-2.124-.549h-1.98v4.77h1.962zm6.534-11.376h1.386V443h-1.386v-12.582zm7.146 12.69c-1.164 0-2.046-.366-2.646-1.098-.6-.732-.9-1.788-.9-3.168 0-1.572.339-2.748 1.017-3.528.678-.78 1.635-1.17 2.871-1.17 1.164 0 2.046.363 2.646 1.089.6.726.9 1.773.9 3.141 0 1.584-.339 2.769-1.017 3.555-.678.786-1.635 1.179-2.871 1.179zm.162-1.152c1.524 0 2.286-1.11 2.286-3.33 0-2.22-.756-3.33-2.268-3.33-1.524 0-2.286 1.104-2.286 3.312 0 2.232.756 3.348 2.268 3.348zm9.108 1.152c-1.176 0-2.085-.336-2.727-1.008-.642-.672-.963-1.764-.963-3.276 0-1.608.318-2.79.954-3.546.636-.756 1.596-1.134 2.88-1.134.324 0 .666.033 1.026.099s.666.147.918.243v1.152h-.432a10.33 10.33 0 0 0-.909-.252 4.02 4.02 0 0 0-.873-.09c-.66 0-1.179.261-1.557.783-.378.522-.567 1.359-.567 2.511 0 1.26.207 2.136.621 2.628.414.492 1.017.738 1.809.738.516 0 1.032-.09 1.548-.27h.45v1.17a9.712 9.712 0 0 1-2.178.252zm10.944-.558v.45h-1.368l-3.51-4.086h-.468V443h-1.386v-12.582h1.386v7.344h.45l3.258-3.51h1.278v.45l-3.33 3.564 3.69 4.284zm1.98-11.772h1.494v5.274h5.688v-5.274h1.494V443h-1.494v-5.706h-5.688V443h-1.494v-12.222zm14.49 3.366c1.068 0 1.848.243 2.34.729.492.486.738 1.239.738 2.259V443h-1.26v-.756c-.732.576-1.602.864-2.61.864-.792 0-1.422-.219-1.89-.657-.468-.438-.702-1.017-.702-1.737 0-.888.291-1.578.873-2.07.582-.492 1.431-.738 2.547-.738.588 0 1.134.06 1.638.18v-.576c0-.828-.144-1.404-.432-1.728-.288-.324-.792-.486-1.512-.486-.372 0-.735.039-1.089.117-.354.078-.759.189-1.215.333h-.432v-1.152c1.128-.3 2.13-.45 3.006-.45zm-1.98 6.408c0 .432.138.777.414 1.035.276.258.66.387 1.152.387.36 0 .723-.06 1.089-.18s.699-.276.999-.468v-2.142a8.46 8.46 0 0 0-1.89-.198c-1.176 0-1.764.522-1.764 1.566zm9.342 2.538c-.324 0-.705-.03-1.143-.09a7.093 7.093 0 0 1-1.071-.216v-1.152h.432c.372.096.714.171 1.026.225.312.054.654.081 1.026.081.504 0 .9-.114 1.188-.342.288-.228.432-.528.432-.9 0-.432-.144-.756-.432-.972-.288-.216-.732-.438-1.332-.666a9.872 9.872 0 0 1-1.197-.513 2.106 2.106 0 0 1-.774-.72c-.21-.318-.315-.729-.315-1.233 0-.744.252-1.338.756-1.782.504-.444 1.224-.666 2.16-.666.6 0 1.29.108 2.07.324v1.152h-.414c-.672-.216-1.26-.324-1.764-.324-.456 0-.81.102-1.062.306-.252.204-.378.486-.378.846 0 .396.138.693.414.891.276.198.708.405 1.296.621.492.168.894.336 1.206.504.312.168.579.414.801.738.222.324.333.75.333 1.278 0 .816-.27 1.455-.81 1.917-.54.462-1.356.693-2.448.693zm9.504-8.946c.948 0 1.641.252 2.079.756.438.504.657 1.29.657 2.358V443h-1.386v-5.454c0-.78-.15-1.341-.45-1.683-.3-.342-.78-.513-1.44-.513-.744 0-1.494.162-2.25.486l.018.126V443h-1.386v-12.582h1.386v2.808c0 .492-.012 1.014-.036 1.566a6.24 6.24 0 0 1 1.314-.468c.492-.12.99-.18 1.494-.18zm-121.662 22.35h-1.602v-1.152h1.602v-1.44c0-1.716.858-2.574 2.574-2.574.456 0 1.074.078 1.854.234v1.134h-.45c-.6-.144-1.08-.216-1.44-.216-.408 0-.702.102-.882.306-.18.204-.27.516-.27.936v1.62h2.25v1.152h-2.25V464h-1.386v-7.506zm9.738.072c-.444 0-.933.054-1.467.162a9.427 9.427 0 0 0-1.467.414V464h-1.386v-8.748h1.296v.918c.72-.444 1.548-.768 2.484-.972h.54v1.368zm4.86 7.542c-1.164 0-2.046-.366-2.646-1.098-.6-.732-.9-1.788-.9-3.168 0-1.572.339-2.748 1.017-3.528.678-.78 1.635-1.17 2.871-1.17 1.164 0 2.046.363 2.646 1.089.6.726.9 1.773.9 3.141 0 1.584-.339 2.769-1.017 3.555-.678.786-1.635 1.179-2.871 1.179zm.162-1.152c1.524 0 2.286-1.11 2.286-3.33 0-2.22-.756-3.33-2.268-3.33-1.524 0-2.286 1.104-2.286 3.312 0 2.232.756 3.348 2.268 3.348zm14.49-7.812c.912 0 1.563.249 1.953.747.39.498.585 1.275.585 2.331V464h-1.386v-5.544c0-.804-.12-1.356-.36-1.656-.24-.3-.642-.45-1.206-.45-.684 0-1.368.18-2.052.54.096.348.144.81.144 1.386V464h-1.368v-5.544c0-.804-.12-1.356-.36-1.656-.24-.3-.642-.45-1.206-.45a4.15 4.15 0 0 0-1.908.468V464h-1.386v-8.748h1.296v.576a5.12 5.12 0 0 1 1.179-.495 4.417 4.417 0 0 1 1.215-.189c.972 0 1.656.294 2.052.882a3.944 3.944 0 0 1 1.341-.657 5.326 5.326 0 0 1 1.467-.225zm18.198 8.406v.45h-1.422l-1.062-3.294h-5.148L358.824 464h-1.278v-.45l3.888-11.772h2.106l3.978 11.772zm-2.898-4.086l-2.16-6.66-2.16 6.66h4.32zm15.012 3.438V464c-.288.096-.654.144-1.098.144-.456 0-.885-.084-1.287-.252-.402-.168-.867-.492-1.395-.972-.924.816-2.076 1.224-3.456 1.224-.756 0-1.416-.135-1.98-.405-.564-.27-.999-.645-1.305-1.125a2.981 2.981 0 0 1-.459-1.638c0-.792.219-1.473.657-2.043.438-.57 1.041-1.119 1.809-1.647-.432-.66-.729-1.227-.891-1.701a4.348 4.348 0 0 1-.243-1.413c0-.828.282-1.509.846-2.043.564-.534 1.308-.801 2.232-.801.84 0 1.491.228 1.953.684.462.456.693 1.014.693 1.674a2.95 2.95 0 0 1-.396 1.521 4.37 4.37 0 0 1-.981 1.161c-.39.324-.897.702-1.521 1.134.324.456.81 1.08 1.458 1.872a67.345 67.345 0 0 0 1.548 1.782c.684-1.128 1.014-2.712.99-4.752h1.242c0 1.152-.117 2.202-.351 3.15-.234.948-.585 1.764-1.053 2.448.42.384.774.642 1.062.774.288.132.588.198.9.198.132 0 .255-.012.369-.036.114-.024.189-.036.225-.036h.432zm-8.298-8.838c0 .372.066.756.198 1.152.132.396.348.846.648 1.35.72-.468 1.266-.903 1.638-1.305.372-.402.558-.861.558-1.377 0-.444-.129-.792-.387-1.044s-.621-.378-1.089-.378c-.48 0-.861.141-1.143.423-.282.282-.423.675-.423 1.179zm-1.278 6.732c0 .672.246 1.203.738 1.593.492.39 1.11.585 1.854.585.924 0 1.716-.282 2.376-.846a33.723 33.723 0 0 1-1.674-1.908 87.246 87.246 0 0 1-1.584-2.016c-.552.42-.975.828-1.269 1.224a2.234 2.234 0 0 0-.441 1.368zm15.804 3.348c-1.692 0-2.943-.489-3.753-1.467-.81-.978-1.215-2.475-1.215-4.491 0-2.22.453-3.855 1.359-4.905.906-1.05 2.271-1.575 4.095-1.575.696 0 1.386.09 2.07.27v1.242h-.432a8.74 8.74 0 0 0-.927-.216 6.035 6.035 0 0 0-.999-.072c-1.224 0-2.139.399-2.745 1.197-.606.798-.909 2.091-.909 3.879 0 1.716.306 2.961.918 3.735.612.774 1.59 1.161 2.934 1.161.552 0 1.164-.096 1.836-.288h.432v1.242c-.648.192-1.536.288-2.664.288z"/><path stroke="#FF5353" d="M463.5 353.5h-183v130h183z"/></g><path stroke="#FDD" d="M305.5 265.5h-131v68h131z"/><g fill-rule="nonzero"><path stroke="#FF5353" d="M853.5 351.5h-174v88h174z"/><path fill="#FF5353" d="M689.576 368.228v-.45h1.404l3.294 11.196 3.438-11.196h1.278v.45L695.246 380h-2.07l-3.6-11.772zm14.076 2.916c1.068 0 1.848.243 2.34.729.492.486.738 1.239.738 2.259V380h-1.26v-.756c-.732.576-1.602.864-2.61.864-.792 0-1.422-.219-1.89-.657-.468-.438-.702-1.017-.702-1.737 0-.888.291-1.578.873-2.07.582-.492 1.431-.738 2.547-.738.588 0 1.134.06 1.638.18v-.576c0-.828-.144-1.404-.432-1.728-.288-.324-.792-.486-1.512-.486-.372 0-.735.039-1.089.117-.354.078-.759.189-1.215.333h-.432v-1.152c1.128-.3 2.13-.45 3.006-.45zm-1.98 6.408c0 .432.138.777.414 1.035.276.258.66.387 1.152.387.36 0 .723-.06 1.089-.18s.699-.276.999-.468v-2.142a8.46 8.46 0 0 0-1.89-.198c-1.176 0-1.764.522-1.764 1.566zm7.686-10.134h1.386V380h-1.386v-12.582zm4.122 3.834h1.386V380h-1.386v-8.748zm-.108-3.042h1.602v1.62h-1.602v-1.62zm10.368-.792V380h-1.206v-.594a3.49 3.49 0 0 1-1.071.522c-.402.12-.813.18-1.233.18-1.068 0-1.887-.342-2.457-1.026-.57-.684-.855-1.74-.855-3.168 0-1.716.348-2.94 1.044-3.672.696-.732 1.74-1.098 3.132-1.098.264 0 .684.024 1.26.072v-3.798h1.386zm-1.386 4.986a11.326 11.326 0 0 0-1.458-.126c-.828 0-1.458.252-1.89.756-.432.504-.648 1.374-.648 2.61 0 1.2.192 2.046.576 2.538.384.492.942.738 1.674.738.252 0 .534-.042.846-.126.312-.084.612-.198.9-.342v-6.048zm6.75-1.26c1.068 0 1.848.243 2.34.729.492.486.738 1.239.738 2.259V380h-1.26v-.756c-.732.576-1.602.864-2.61.864-.792 0-1.422-.219-1.89-.657-.468-.438-.702-1.017-.702-1.737 0-.888.291-1.578.873-2.07.582-.492 1.431-.738 2.547-.738.588 0 1.134.06 1.638.18v-.576c0-.828-.144-1.404-.432-1.728-.288-.324-.792-.486-1.512-.486-.372 0-.735.039-1.089.117-.354.078-.759.189-1.215.333h-.432v-1.152c1.128-.3 2.13-.45 3.006-.45zm-1.98 6.408c0 .432.138.777.414 1.035.276.258.66.387 1.152.387.36 0 .723-.06 1.089-.18s.699-.276.999-.468v-2.142a8.46 8.46 0 0 0-1.89-.198c-1.176 0-1.764.522-1.764 1.566zm10.44 2.538c-.768 0-1.329-.162-1.683-.486-.354-.324-.531-.882-.531-1.674v-5.436h-1.458v-1.152h.972c.24 0 .402-.057.486-.171.084-.114.126-.315.126-.603v-.936h1.278v1.71h2.538v1.152h-2.538v4.986c0 .54.09.915.27 1.125.18.21.468.315.864.315.228 0 .444-.024.648-.072.204-.048.336-.078.396-.09h.342v1.17a9.072 9.072 0 0 1-1.71.162zm6.66-8.946c1.032 0 1.794.297 2.286.891.492.594.738 1.557.738 2.889 0 .444-.012.786-.036 1.026h-5.184c.012 1.08.252 1.851.72 2.313.468.462 1.14.693 2.016.693.6 0 1.236-.132 1.908-.396h.432v1.17c-.78.252-1.656.378-2.628.378-1.212 0-2.16-.324-2.844-.972-.684-.648-1.026-1.722-1.026-3.222 0-1.656.303-2.865.909-3.627.606-.762 1.509-1.143 2.709-1.143zm-.18 1.116c-1.296 0-1.968.876-2.016 2.628h3.888c.048-.888-.084-1.548-.396-1.98-.312-.432-.804-.648-1.476-.648zm9.63 7.74v-12.222h3.33c1.188-.024 2.1.213 2.736.711.636.498.954 1.245.954 2.241 0 .696-.171 1.26-.513 1.692a2.547 2.547 0 0 1-1.305.882v.054c.816.06 1.455.327 1.917.801.462.474.693 1.161.693 2.061 0 1.332-.387 2.295-1.161 2.889-.774.594-1.947.891-3.519.891h-3.132zm3.168-7.074c.84 0 1.449-.171 1.827-.513.378-.342.567-.849.567-1.521 0-.66-.195-1.14-.585-1.44-.39-.3-1.029-.45-1.917-.45h-1.566v3.924h1.674zm.288 5.868c.96 0 1.674-.183 2.142-.549.468-.366.702-.987.702-1.863 0-.84-.234-1.443-.702-1.809-.468-.366-1.176-.549-2.124-.549h-1.98v4.77h1.962zm6.534-11.376h1.386V380h-1.386v-12.582zm7.146 12.69c-1.164 0-2.046-.366-2.646-1.098-.6-.732-.9-1.788-.9-3.168 0-1.572.339-2.748 1.017-3.528.678-.78 1.635-1.17 2.871-1.17 1.164 0 2.046.363 2.646 1.089.6.726.9 1.773.9 3.141 0 1.584-.339 2.769-1.017 3.555-.678.786-1.635 1.179-2.871 1.179zm.162-1.152c1.524 0 2.286-1.11 2.286-3.33 0-2.22-.756-3.33-2.268-3.33-1.524 0-2.286 1.104-2.286 3.312 0 2.232.756 3.348 2.268 3.348zm9.108 1.152c-1.176 0-2.085-.336-2.727-1.008-.642-.672-.963-1.764-.963-3.276 0-1.608.318-2.79.954-3.546.636-.756 1.596-1.134 2.88-1.134.324 0 .666.033 1.026.099s.666.147.918.243v1.152h-.432a10.33 10.33 0 0 0-.909-.252 4.02 4.02 0 0 0-.873-.09c-.66 0-1.179.261-1.557.783-.378.522-.567 1.359-.567 2.511 0 1.26.207 2.136.621 2.628.414.492 1.017.738 1.809.738.516 0 1.032-.09 1.548-.27h.45v1.17a9.712 9.712 0 0 1-2.178.252zm10.944-.558v.45h-1.368l-3.51-4.086h-.468V380h-1.386v-12.582h1.386v7.344h.45l3.258-3.51h1.278v.45l-3.33 3.564 3.69 4.284zm5.85-8.406c.948 0 1.641.252 2.079.756.438.504.657 1.29.657 2.358V380h-1.386v-5.454c0-.78-.15-1.341-.45-1.683-.3-.342-.78-.513-1.44-.513-.744 0-1.494.162-2.25.486l.018.126V380h-1.386v-12.582h1.386v2.808c0 .492-.012 1.014-.036 1.566a6.24 6.24 0 0 1 1.314-.468c.492-.12.99-.18 1.494-.18zm8.172 0c1.068 0 1.848.243 2.34.729.492.486.738 1.239.738 2.259V380h-1.26v-.756c-.732.576-1.602.864-2.61.864-.792 0-1.422-.219-1.89-.657-.468-.438-.702-1.017-.702-1.737 0-.888.291-1.578.873-2.07.582-.492 1.431-.738 2.547-.738.588 0 1.134.06 1.638.18v-.576c0-.828-.144-1.404-.432-1.728-.288-.324-.792-.486-1.512-.486-.372 0-.735.039-1.089.117-.354.078-.759.189-1.215.333h-.432v-1.152c1.128-.3 2.13-.45 3.006-.45zm-1.98 6.408c0 .432.138.777.414 1.035.276.258.66.387 1.152.387.36 0 .723-.06 1.089-.18s.699-.276.999-.468v-2.142a8.46 8.46 0 0 0-1.89-.198c-1.176 0-1.764.522-1.764 1.566zm9.342 2.538c-.324 0-.705-.03-1.143-.09a7.093 7.093 0 0 1-1.071-.216v-1.152h.432c.372.096.714.171 1.026.225.312.054.654.081 1.026.081.504 0 .9-.114 1.188-.342.288-.228.432-.528.432-.9 0-.432-.144-.756-.432-.972-.288-.216-.732-.438-1.332-.666a9.872 9.872 0 0 1-1.197-.513 2.106 2.106 0 0 1-.774-.72c-.21-.318-.315-.729-.315-1.233 0-.744.252-1.338.756-1.782.504-.444 1.224-.666 2.16-.666.6 0 1.29.108 2.07.324v1.152h-.414c-.672-.216-1.26-.324-1.764-.324-.456 0-.81.102-1.062.306-.252.204-.378.486-.378.846 0 .396.138.693.414.891.276.198.708.405 1.296.621.492.168.894.336 1.206.504.312.168.579.414.801.738.222.324.333.75.333 1.278 0 .816-.27 1.455-.81 1.917-.54.462-1.356.693-2.448.693zm9.504-8.946c.948 0 1.641.252 2.079.756.438.504.657 1.29.657 2.358V380h-1.386v-5.454c0-.78-.15-1.341-.45-1.683-.3-.342-.78-.513-1.44-.513-.744 0-1.494.162-2.25.486l.018.126V380h-1.386v-12.582h1.386v2.808c0 .492-.012 1.014-.036 1.566a6.24 6.24 0 0 1 1.314-.468c.492-.12.99-.18 1.494-.18zm8.478 0c1.032 0 1.794.297 2.286.891.492.594.738 1.557.738 2.889 0 .444-.012.786-.036 1.026h-5.184c.012 1.08.252 1.851.72 2.313.468.462 1.14.693 2.016.693.6 0 1.236-.132 1.908-.396h.432v1.17c-.78.252-1.656.378-2.628.378-1.212 0-2.16-.324-2.844-.972-.684-.648-1.026-1.722-1.026-3.222 0-1.656.303-2.865.909-3.627.606-.762 1.509-1.143 2.709-1.143zm-.18 1.116c-1.296 0-1.968.876-2.016 2.628h3.888c.048-.888-.084-1.548-.396-1.98-.312-.432-.804-.648-1.476-.648zm7.092 7.83c-.324 0-.705-.03-1.143-.09a7.093 7.093 0 0 1-1.071-.216v-1.152h.432c.372.096.714.171 1.026.225.312.054.654.081 1.026.081.504 0 .9-.114 1.188-.342.288-.228.432-.528.432-.9 0-.432-.144-.756-.432-.972-.288-.216-.732-.438-1.332-.666a9.872 9.872 0 0 1-1.197-.513 2.106 2.106 0 0 1-.774-.72c-.21-.318-.315-.729-.315-1.233 0-.744.252-1.338.756-1.782.504-.444 1.224-.666 2.16-.666.6 0 1.29.108 2.07.324v1.152h-.414c-.672-.216-1.26-.324-1.764-.324-.456 0-.81.102-1.062.306-.252.204-.378.486-.378.846 0 .396.138.693.414.891.276.198.708.405 1.296.621.492.168.894.336 1.206.504.312.168.579.414.801.738.222.324.333.75.333 1.278 0 .816-.27 1.455-.81 1.917-.54.462-1.356.693-2.448.693zm-144.144 12.054c1.068 0 1.848.243 2.34.729.492.486.738 1.239.738 2.259V401h-1.26v-.756c-.732.576-1.602.864-2.61.864-.792 0-1.422-.219-1.89-.657-.468-.438-.702-1.017-.702-1.737 0-.888.291-1.578.873-2.07.582-.492 1.431-.738 2.547-.738.588 0 1.134.06 1.638.18v-.576c0-.828-.144-1.404-.432-1.728-.288-.324-.792-.486-1.512-.486-.372 0-.735.039-1.089.117-.354.078-.759.189-1.215.333h-.432v-1.152c1.128-.3 2.13-.45 3.006-.45zm-1.98 6.408c0 .432.138.777.414 1.035.276.258.66.387 1.152.387.36 0 .723-.06 1.089-.18s.699-.276.999-.468v-2.142a8.46 8.46 0 0 0-1.89-.198c-1.176 0-1.764.522-1.764 1.566zm11.844-6.408c.948 0 1.641.252 2.079.756.438.504.657 1.29.657 2.358V401h-1.386v-5.454c0-.78-.15-1.341-.45-1.683-.3-.342-.78-.513-1.44-.513-.732 0-1.476.156-2.232.468V401h-1.386v-8.748h1.296v.576a5.867 5.867 0 0 1 1.332-.495 6.285 6.285 0 0 1 1.53-.189zm11.52-3.726V401h-1.206v-.594a3.49 3.49 0 0 1-1.071.522c-.402.12-.813.18-1.233.18-1.068 0-1.887-.342-2.457-1.026-.57-.684-.855-1.74-.855-3.168 0-1.716.348-2.94 1.044-3.672.696-.732 1.74-1.098 3.132-1.098.264 0 .684.024 1.26.072v-3.798h1.386zm-1.386 4.986a11.326 11.326 0 0 0-1.458-.126c-.828 0-1.458.252-1.89.756-.432.504-.648 1.374-.648 2.61 0 1.2.192 2.046.576 2.538.384.492.942.738 1.674.738.252 0 .534-.042.846-.126.312-.084.612-.198.9-.342v-6.048zm11.178 6.192c1.02 0 1.785.189 2.295.567.51.378.765.885.765 1.521a2.17 2.17 0 0 1-.504 1.422c-.336.408-.825.729-1.467.963-.642.234-1.401.351-2.277.351-1.02 0-1.797-.183-2.331-.549-.534-.366-.801-.861-.801-1.485 0-.948.606-1.752 1.818-2.412a1.45 1.45 0 0 1-.108-.576c0-.396.108-.852.324-1.368a2.228 2.228 0 0 1-1.179-.972c-.27-.456-.405-1.038-.405-1.746 0-.912.282-1.665.846-2.259.564-.594 1.368-.891 2.412-.891h.252l.63-2.178h1.44v.45l-1.098 1.908c.552.18.975.504 1.269.972.294.468.441 1.068.441 1.8 0 .912-.279 1.665-.837 2.259-.558.594-1.359.891-2.403.891-.216 0-.378-.006-.486-.018-.06.276-.09.504-.09.684 0 .24.072.411.216.513.144.102.384.153.72.153h.558zm-.756-6.336c-.588 0-1.023.168-1.305.504-.282.336-.423.804-.423 1.404 0 .66.132 1.158.396 1.494.264.336.696.504 1.296.504.576 0 1.008-.168 1.296-.504.288-.336.432-.804.432-1.404 0-.66-.132-1.158-.396-1.494-.264-.336-.696-.504-1.296-.504zm-.198 10.026c.828 0 1.467-.132 1.917-.396.45-.264.675-.606.675-1.026 0-.768-.618-1.152-1.854-1.152h-.594c-.42 0-.768-.054-1.044-.162-.372.204-.654.444-.846.72a1.467 1.467 0 0 0-.288.846c0 .78.678 1.17 2.034 1.17zm8.712-11.142c1.032 0 1.794.297 2.286.891.492.594.738 1.557.738 2.889 0 .444-.012.786-.036 1.026h-5.184c.012 1.08.252 1.851.72 2.313.468.462 1.14.693 2.016.693.6 0 1.236-.132 1.908-.396h.432v1.17c-.78.252-1.656.378-2.628.378-1.212 0-2.16-.324-2.844-.972-.684-.648-1.026-1.722-1.026-3.222 0-1.656.303-2.865.909-3.627.606-.762 1.509-1.143 2.709-1.143zm-.18 1.116c-1.296 0-1.968.876-2.016 2.628h3.888c.048-.888-.084-1.548-.396-1.98-.312-.432-.804-.648-1.476-.648zm8.19 7.83c-.768 0-1.329-.162-1.683-.486-.354-.324-.531-.882-.531-1.674v-5.436h-1.458v-1.152h.972c.24 0 .402-.057.486-.171.084-.114.126-.315.126-.603v-.936h1.278v1.71h2.538v1.152h-2.538v4.986c0 .54.09.915.27 1.125.18.21.468.315.864.315.228 0 .444-.024.648-.072.204-.048.336-.078.396-.09h.342v1.17a9.072 9.072 0 0 1-1.71.162zm17.478-12.672V401h-1.206v-.594a3.49 3.49 0 0 1-1.071.522c-.402.12-.813.18-1.233.18-1.068 0-1.887-.342-2.457-1.026-.57-.684-.855-1.74-.855-3.168 0-1.716.348-2.94 1.044-3.672.696-.732 1.74-1.098 3.132-1.098.264 0 .684.024 1.26.072v-3.798h1.386zm-1.386 4.986a11.326 11.326 0 0 0-1.458-.126c-.828 0-1.458.252-1.89.756-.432.504-.648 1.374-.648 2.61 0 1.2.192 2.046.576 2.538.384.492.942.738 1.674.738.252 0 .534-.042.846-.126.312-.084.612-.198.9-.342v-6.048zm7.056-1.26c1.032 0 1.794.297 2.286.891.492.594.738 1.557.738 2.889 0 .444-.012.786-.036 1.026h-5.184c.012 1.08.252 1.851.72 2.313.468.462 1.14.693 2.016.693.6 0 1.236-.132 1.908-.396h.432v1.17c-.78.252-1.656.378-2.628.378-1.212 0-2.16-.324-2.844-.972-.684-.648-1.026-1.722-1.026-3.222 0-1.656.303-2.865.909-3.627.606-.762 1.509-1.143 2.709-1.143zm-.18 1.116c-1.296 0-1.968.876-2.016 2.628h3.888c.048-.888-.084-1.548-.396-1.98-.312-.432-.804-.648-1.476-.648zm8.802-1.116c1.068 0 1.887.342 2.457 1.026.57.684.855 1.74.855 3.168 0 1.716-.348 2.94-1.044 3.672-.696.732-1.74 1.098-3.132 1.098-.264 0-.684-.024-1.26-.072v3.294h-1.404v-12.078h1.224v.594a3.49 3.49 0 0 1 1.071-.522c.402-.12.813-.18 1.233-.18zm-.666 7.812c.828 0 1.458-.249 1.89-.747.432-.498.648-1.365.648-2.601 0-1.2-.192-2.046-.576-2.538-.384-.492-.942-.738-1.674-.738-.252 0-.534.042-.846.126a4.794 4.794 0 0 0-.9.342v6.03c.612.084 1.098.126 1.458.126zm9.216 1.152c-1.164 0-2.046-.366-2.646-1.098-.6-.732-.9-1.788-.9-3.168 0-1.572.339-2.748 1.017-3.528.678-.78 1.635-1.17 2.871-1.17 1.164 0 2.046.363 2.646 1.089.6.726.9 1.773.9 3.141 0 1.584-.339 2.769-1.017 3.555-.678.786-1.635 1.179-2.871 1.179zm.162-1.152c1.524 0 2.286-1.11 2.286-3.33 0-2.22-.756-3.33-2.268-3.33-1.524 0-2.286 1.104-2.286 3.312 0 2.232.756 3.348 2.268 3.348zm7.596 1.134c-.324 0-.705-.03-1.143-.09a7.093 7.093 0 0 1-1.071-.216v-1.152h.432c.372.096.714.171 1.026.225.312.054.654.081 1.026.081.504 0 .9-.114 1.188-.342.288-.228.432-.528.432-.9 0-.432-.144-.756-.432-.972-.288-.216-.732-.438-1.332-.666a9.872 9.872 0 0 1-1.197-.513 2.106 2.106 0 0 1-.774-.72c-.21-.318-.315-.729-.315-1.233 0-.744.252-1.338.756-1.782.504-.444 1.224-.666 2.16-.666.6 0 1.29.108 2.07.324v1.152h-.414c-.672-.216-1.26-.324-1.764-.324-.456 0-.81.102-1.062.306-.252.204-.378.486-.378.846 0 .396.138.693.414.891.276.198.708.405 1.296.621.492.168.894.336 1.206.504.312.168.579.414.801.738.222.324.333.75.333 1.278 0 .816-.27 1.455-.81 1.917-.54.462-1.356.693-2.448.693zm5.346-8.838h1.386V401h-1.386v-8.748zm-.108-3.042h1.602v1.62h-1.602v-1.62zm6.984 11.88c-.768 0-1.329-.162-1.683-.486-.354-.324-.531-.882-.531-1.674v-5.436h-1.458v-1.152h.972c.24 0 .402-.057.486-.171.084-.114.126-.315.126-.603v-.936h1.278v1.71h2.538v1.152h-2.538v4.986c0 .54.09.915.27 1.125.18.21.468.315.864.315.228 0 .444-.024.648-.072.204-.048.336-.078.396-.09h.342v1.17a9.072 9.072 0 0 1-1.71.162zm7.452-8.838h1.386V401h-1.386v-8.748zm-.108-3.042h1.602v1.62h-1.602v-1.62zm4.932 4.284h-1.602v-1.152h1.602v-1.44c0-1.716.858-2.574 2.574-2.574.456 0 1.074.078 1.854.234v1.134h-.45c-.6-.144-1.08-.216-1.44-.216-.408 0-.702.102-.882.306-.18.204-.27.516-.27.936v1.62h2.25v1.152h-2.25V401h-1.386v-7.506zm-121.608 21h-1.602v-1.152h1.602v-1.44c0-1.716.858-2.574 2.574-2.574.456 0 1.074.078 1.854.234v1.134h-.45c-.6-.144-1.08-.216-1.44-.216-.408 0-.702.102-.882.306-.18.204-.27.516-.27.936v1.62h2.25v1.152h-2.25V422h-1.386v-7.506zm8.208-1.35c1.068 0 1.848.243 2.34.729.492.486.738 1.239.738 2.259V422h-1.26v-.756c-.732.576-1.602.864-2.61.864-.792 0-1.422-.219-1.89-.657-.468-.438-.702-1.017-.702-1.737 0-.888.291-1.578.873-2.07.582-.492 1.431-.738 2.547-.738.588 0 1.134.06 1.638.18v-.576c0-.828-.144-1.404-.432-1.728-.288-.324-.792-.486-1.512-.486-.372 0-.735.039-1.089.117-.354.078-.759.189-1.215.333h-.432v-1.152c1.128-.3 2.13-.45 3.006-.45zm-1.98 6.408c0 .432.138.777.414 1.035.276.258.66.387 1.152.387.36 0 .723-.06 1.089-.18s.699-.276.999-.468v-2.142a8.46 8.46 0 0 0-1.89-.198c-1.176 0-1.764.522-1.764 1.566zm7.686-6.3h1.386V422h-1.386v-8.748zm-.108-3.042h1.602v1.62h-1.602v-1.62zm4.23-.792h1.386V422h-1.386v-12.582zm4.122 3.834h1.386V422h-1.386v-8.748zm-.108-3.042h1.602v1.62h-1.602v-1.62zm8.388 2.934c.948 0 1.641.252 2.079.756.438.504.657 1.29.657 2.358V422h-1.386v-5.454c0-.78-.15-1.341-.45-1.683-.3-.342-.78-.513-1.44-.513-.732 0-1.476.156-2.232.468V422h-1.386v-8.748h1.296v.576a5.867 5.867 0 0 1 1.332-.495 6.285 6.285 0 0 1 1.53-.189zm8.712 7.452c1.02 0 1.785.189 2.295.567.51.378.765.885.765 1.521a2.17 2.17 0 0 1-.504 1.422c-.336.408-.825.729-1.467.963-.642.234-1.401.351-2.277.351-1.02 0-1.797-.183-2.331-.549-.534-.366-.801-.861-.801-1.485 0-.948.606-1.752 1.818-2.412a1.45 1.45 0 0 1-.108-.576c0-.396.108-.852.324-1.368a2.228 2.228 0 0 1-1.179-.972c-.27-.456-.405-1.038-.405-1.746 0-.912.282-1.665.846-2.259.564-.594 1.368-.891 2.412-.891h.252l.63-2.178h1.44v.45l-1.098 1.908c.552.18.975.504 1.269.972.294.468.441 1.068.441 1.8 0 .912-.279 1.665-.837 2.259-.558.594-1.359.891-2.403.891-.216 0-.378-.006-.486-.018-.06.276-.09.504-.09.684 0 .24.072.411.216.513.144.102.384.153.72.153h.558zm-.756-6.336c-.588 0-1.023.168-1.305.504-.282.336-.423.804-.423 1.404 0 .66.132 1.158.396 1.494.264.336.696.504 1.296.504.576 0 1.008-.168 1.296-.504.288-.336.432-.804.432-1.404 0-.66-.132-1.158-.396-1.494-.264-.336-.696-.504-1.296-.504zm-.198 10.026c.828 0 1.467-.132 1.917-.396.45-.264.675-.606.675-1.026 0-.768-.618-1.152-1.854-1.152h-.594c-.42 0-.768-.054-1.044-.162-.372.204-.654.444-.846.72a1.467 1.467 0 0 0-.288.846c0 .78.678 1.17 2.034 1.17z"/></g><g fill-rule="nonzero"><path fill="#FF5353" d="M579.816 191.644c-.504 0-1.05-.048-1.638-.144-.588-.096-1.05-.204-1.386-.324v-1.332h.45c.48.18.936.318 1.368.414.432.096.924.144 1.476.144.732 0 1.308-.177 1.728-.531.42-.354.63-.849.63-1.485 0-.432-.108-.798-.324-1.098-.216-.3-.48-.546-.792-.738a11.79 11.79 0 0 0-1.314-.666c-.648-.288-1.167-.555-1.557-.801a3.238 3.238 0 0 1-.999-1.017c-.276-.432-.414-.972-.414-1.62 0-1.008.327-1.8.981-2.376.654-.576 1.605-.864 2.853-.864.9 0 1.8.15 2.7.45v1.296h-.45c-.828-.348-1.626-.522-2.394-.522-.684 0-1.218.165-1.602.495-.384.33-.576.777-.576 1.341 0 .42.105.774.315 1.062.21.288.471.525.783.711.312.186.744.405 1.296.657.648.3 1.17.576 1.566.828.396.252.735.597 1.017 1.035.282.438.423.981.423 1.629 0 1.068-.342 1.911-1.026 2.529-.684.618-1.722.927-3.114.927zm6.318-8.892h1.386v8.748h-1.386v-8.748zm-.108-3.042h1.602v1.62h-1.602v-1.62zm7.56 10.386c1.02 0 1.785.189 2.295.567.51.378.765.885.765 1.521a2.17 2.17 0 0 1-.504 1.422c-.336.408-.825.729-1.467.963-.642.234-1.401.351-2.277.351-1.02 0-1.797-.183-2.331-.549-.534-.366-.801-.861-.801-1.485 0-.948.606-1.752 1.818-2.412a1.45 1.45 0 0 1-.108-.576c0-.396.108-.852.324-1.368a2.228 2.228 0 0 1-1.179-.972c-.27-.456-.405-1.038-.405-1.746 0-.912.282-1.665.846-2.259.564-.594 1.368-.891 2.412-.891h.252l.63-2.178h1.44v.45l-1.098 1.908c.552.18.975.504 1.269.972.294.468.441 1.068.441 1.8 0 .912-.279 1.665-.837 2.259-.558.594-1.359.891-2.403.891-.216 0-.378-.006-.486-.018-.06.276-.09.504-.09.684 0 .24.072.411.216.513.144.102.384.153.72.153h.558zm-.756-6.336c-.588 0-1.023.168-1.305.504-.282.336-.423.804-.423 1.404 0 .66.132 1.158.396 1.494.264.336.696.504 1.296.504.576 0 1.008-.168 1.296-.504.288-.336.432-.804.432-1.404 0-.66-.132-1.158-.396-1.494-.264-.336-.696-.504-1.296-.504zm-.198 10.026c.828 0 1.467-.132 1.917-.396.45-.264.675-.606.675-1.026 0-.768-.618-1.152-1.854-1.152h-.594c-.42 0-.768-.054-1.044-.162-.372.204-.654.444-.846.72a1.467 1.467 0 0 0-.288.846c0 .78.678 1.17 2.034 1.17zm9.774-11.142c.948 0 1.641.252 2.079.756.438.504.657 1.29.657 2.358v5.742h-1.386v-5.454c0-.78-.15-1.341-.45-1.683-.3-.342-.78-.513-1.44-.513-.732 0-1.476.156-2.232.468v7.182h-1.386v-8.748h1.296v.576a5.867 5.867 0 0 1 1.332-.495 6.285 6.285 0 0 1 1.53-.189zm8.478 0c1.032 0 1.794.297 2.286.891.492.594.738 1.557.738 2.889 0 .444-.012.786-.036 1.026h-5.184c.012 1.08.252 1.851.72 2.313.468.462 1.14.693 2.016.693.6 0 1.236-.132 1.908-.396h.432v1.17c-.78.252-1.656.378-2.628.378-1.212 0-2.16-.324-2.844-.972-.684-.648-1.026-1.722-1.026-3.222 0-1.656.303-2.865.909-3.627.606-.762 1.509-1.143 2.709-1.143zm-.18 1.116c-1.296 0-1.968.876-2.016 2.628h3.888c.048-.888-.084-1.548-.396-1.98-.312-.432-.804-.648-1.476-.648zm11.574-4.842V191.5h-1.206v-.594a3.49 3.49 0 0 1-1.071.522c-.402.12-.813.18-1.233.18-1.068 0-1.887-.342-2.457-1.026-.57-.684-.855-1.74-.855-3.168 0-1.716.348-2.94 1.044-3.672.696-.732 1.74-1.098 3.132-1.098.264 0 .684.024 1.26.072v-3.798h1.386zm-1.386 4.986a11.326 11.326 0 0 0-1.458-.126c-.828 0-1.458.252-1.89.756-.432.504-.648 1.374-.648 2.61 0 1.2.192 2.046.576 2.538.384.492.942.738 1.674.738.252 0 .534-.042.846-.126.312-.084.612-.198.9-.342v-6.048zM577.674 212.5v-12.222h3.33c1.188-.024 2.1.213 2.736.711.636.498.954 1.245.954 2.241 0 .696-.171 1.26-.513 1.692a2.547 2.547 0 0 1-1.305.882v.054c.816.06 1.455.327 1.917.801.462.474.693 1.161.693 2.061 0 1.332-.387 2.295-1.161 2.889-.774.594-1.947.891-3.519.891h-3.132zm3.168-7.074c.84 0 1.449-.171 1.827-.513.378-.342.567-.849.567-1.521 0-.66-.195-1.14-.585-1.44-.39-.3-1.029-.45-1.917-.45h-1.566v3.924h1.674zm.288 5.868c.96 0 1.674-.183 2.142-.549.468-.366.702-.987.702-1.863 0-.84-.234-1.443-.702-1.809-.468-.366-1.176-.549-2.124-.549h-1.98v4.77h1.962zm6.534-11.376h1.386V212.5h-1.386v-12.582zm7.146 12.69c-1.164 0-2.046-.366-2.646-1.098-.6-.732-.9-1.788-.9-3.168 0-1.572.339-2.748 1.017-3.528.678-.78 1.635-1.17 2.871-1.17 1.164 0 2.046.363 2.646 1.089.6.726.9 1.773.9 3.141 0 1.584-.339 2.769-1.017 3.555-.678.786-1.635 1.179-2.871 1.179zm.162-1.152c1.524 0 2.286-1.11 2.286-3.33 0-2.22-.756-3.33-2.268-3.33-1.524 0-2.286 1.104-2.286 3.312 0 2.232.756 3.348 2.268 3.348zm9.108 1.152c-1.176 0-2.085-.336-2.727-1.008-.642-.672-.963-1.764-.963-3.276 0-1.608.318-2.79.954-3.546.636-.756 1.596-1.134 2.88-1.134.324 0 .666.033 1.026.099s.666.147.918.243v1.152h-.432a10.33 10.33 0 0 0-.909-.252 4.02 4.02 0 0 0-.873-.09c-.66 0-1.179.261-1.557.783-.378.522-.567 1.359-.567 2.511 0 1.26.207 2.136.621 2.628.414.492 1.017.738 1.809.738.516 0 1.032-.09 1.548-.27h.45v1.17a9.712 9.712 0 0 1-2.178.252zm10.944-.558v.45h-1.368l-3.51-4.086h-.468v4.086h-1.386v-12.582h1.386v7.344h.45l3.258-3.51h1.278v.45l-3.33 3.564 3.69 4.284zm1.98-11.772h1.494v5.274h5.688v-5.274h1.494V212.5h-1.494v-5.706h-5.688v5.706h-1.494v-12.222zm14.49 3.366c1.068 0 1.848.243 2.34.729.492.486.738 1.239.738 2.259v5.868h-1.26v-.756c-.732.576-1.602.864-2.61.864-.792 0-1.422-.219-1.89-.657-.468-.438-.702-1.017-.702-1.737 0-.888.291-1.578.873-2.07.582-.492 1.431-.738 2.547-.738.588 0 1.134.06 1.638.18v-.576c0-.828-.144-1.404-.432-1.728-.288-.324-.792-.486-1.512-.486-.372 0-.735.039-1.089.117-.354.078-.759.189-1.215.333h-.432v-1.152c1.128-.3 2.13-.45 3.006-.45zm-1.98 6.408c0 .432.138.777.414 1.035.276.258.66.387 1.152.387.36 0 .723-.06 1.089-.18s.699-.276.999-.468v-2.142a8.46 8.46 0 0 0-1.89-.198c-1.176 0-1.764.522-1.764 1.566zm9.342 2.538c-.324 0-.705-.03-1.143-.09a7.093 7.093 0 0 1-1.071-.216v-1.152h.432c.372.096.714.171 1.026.225.312.054.654.081 1.026.081.504 0 .9-.114 1.188-.342.288-.228.432-.528.432-.9 0-.432-.144-.756-.432-.972-.288-.216-.732-.438-1.332-.666a9.872 9.872 0 0 1-1.197-.513 2.106 2.106 0 0 1-.774-.72c-.21-.318-.315-.729-.315-1.233 0-.744.252-1.338.756-1.782.504-.444 1.224-.666 2.16-.666.6 0 1.29.108 2.07.324v1.152h-.414c-.672-.216-1.26-.324-1.764-.324-.456 0-.81.102-1.062.306-.252.204-.378.486-.378.846 0 .396.138.693.414.891.276.198.708.405 1.296.621.492.168.894.336 1.206.504.312.168.579.414.801.738.222.324.333.75.333 1.278 0 .816-.27 1.455-.81 1.917-.54.462-1.356.693-2.448.693zm9.504-8.946c.948 0 1.641.252 2.079.756.438.504.657 1.29.657 2.358v5.742h-1.386v-5.454c0-.78-.15-1.341-.45-1.683-.3-.342-.78-.513-1.44-.513-.744 0-1.494.162-2.25.486l.018.126v7.038h-1.386v-12.582h1.386v2.808c0 .492-.012 1.014-.036 1.566a6.24 6.24 0 0 1 1.314-.468c.492-.12.99-.18 1.494-.18z"/><path stroke="#FF5353" d="M566.5 169.5v59h96v-59z"/></g><g fill-rule="nonzero"><path fill="#FF5353" d="M579.816 489.644c-.504 0-1.05-.048-1.638-.144-.588-.096-1.05-.204-1.386-.324v-1.332h.45c.48.18.936.318 1.368.414.432.096.924.144 1.476.144.732 0 1.308-.177 1.728-.531.42-.354.63-.849.63-1.485 0-.432-.108-.798-.324-1.098-.216-.3-.48-.546-.792-.738a11.79 11.79 0 0 0-1.314-.666c-.648-.288-1.167-.555-1.557-.801a3.238 3.238 0 0 1-.999-1.017c-.276-.432-.414-.972-.414-1.62 0-1.008.327-1.8.981-2.376.654-.576 1.605-.864 2.853-.864.9 0 1.8.15 2.7.45v1.296h-.45c-.828-.348-1.626-.522-2.394-.522-.684 0-1.218.165-1.602.495-.384.33-.576.777-.576 1.341 0 .42.105.774.315 1.062.21.288.471.525.783.711.312.186.744.405 1.296.657.648.3 1.17.576 1.566.828.396.252.735.597 1.017 1.035.282.438.423.981.423 1.629 0 1.068-.342 1.911-1.026 2.529-.684.618-1.722.927-3.114.927zm6.318-8.892h1.386v8.748h-1.386v-8.748zm-.108-3.042h1.602v1.62h-1.602v-1.62zm7.56 10.386c1.02 0 1.785.189 2.295.567.51.378.765.885.765 1.521a2.17 2.17 0 0 1-.504 1.422c-.336.408-.825.729-1.467.963-.642.234-1.401.351-2.277.351-1.02 0-1.797-.183-2.331-.549-.534-.366-.801-.861-.801-1.485 0-.948.606-1.752 1.818-2.412a1.45 1.45 0 0 1-.108-.576c0-.396.108-.852.324-1.368a2.228 2.228 0 0 1-1.179-.972c-.27-.456-.405-1.038-.405-1.746 0-.912.282-1.665.846-2.259.564-.594 1.368-.891 2.412-.891h.252l.63-2.178h1.44v.45l-1.098 1.908c.552.18.975.504 1.269.972.294.468.441 1.068.441 1.8 0 .912-.279 1.665-.837 2.259-.558.594-1.359.891-2.403.891-.216 0-.378-.006-.486-.018-.06.276-.09.504-.09.684 0 .24.072.411.216.513.144.102.384.153.72.153h.558zm-.756-6.336c-.588 0-1.023.168-1.305.504-.282.336-.423.804-.423 1.404 0 .66.132 1.158.396 1.494.264.336.696.504 1.296.504.576 0 1.008-.168 1.296-.504.288-.336.432-.804.432-1.404 0-.66-.132-1.158-.396-1.494-.264-.336-.696-.504-1.296-.504zm-.198 10.026c.828 0 1.467-.132 1.917-.396.45-.264.675-.606.675-1.026 0-.768-.618-1.152-1.854-1.152h-.594c-.42 0-.768-.054-1.044-.162-.372.204-.654.444-.846.72a1.467 1.467 0 0 0-.288.846c0 .78.678 1.17 2.034 1.17zm9.774-11.142c.948 0 1.641.252 2.079.756.438.504.657 1.29.657 2.358v5.742h-1.386v-5.454c0-.78-.15-1.341-.45-1.683-.3-.342-.78-.513-1.44-.513-.732 0-1.476.156-2.232.468v7.182h-1.386v-8.748h1.296v.576a5.867 5.867 0 0 1 1.332-.495 6.285 6.285 0 0 1 1.53-.189zm8.478 0c1.032 0 1.794.297 2.286.891.492.594.738 1.557.738 2.889 0 .444-.012.786-.036 1.026h-5.184c.012 1.08.252 1.851.72 2.313.468.462 1.14.693 2.016.693.6 0 1.236-.132 1.908-.396h.432v1.17c-.78.252-1.656.378-2.628.378-1.212 0-2.16-.324-2.844-.972-.684-.648-1.026-1.722-1.026-3.222 0-1.656.303-2.865.909-3.627.606-.762 1.509-1.143 2.709-1.143zm-.18 1.116c-1.296 0-1.968.876-2.016 2.628h3.888c.048-.888-.084-1.548-.396-1.98-.312-.432-.804-.648-1.476-.648zm11.574-4.842V489.5h-1.206v-.594a3.49 3.49 0 0 1-1.071.522c-.402.12-.813.18-1.233.18-1.068 0-1.887-.342-2.457-1.026-.57-.684-.855-1.74-.855-3.168 0-1.716.348-2.94 1.044-3.672.696-.732 1.74-1.098 3.132-1.098.264 0 .684.024 1.26.072v-3.798h1.386zm-1.386 4.986a11.326 11.326 0 0 0-1.458-.126c-.828 0-1.458.252-1.89.756-.432.504-.648 1.374-.648 2.61 0 1.2.192 2.046.576 2.538.384.492.942.738 1.674.738.252 0 .534-.042.846-.126.312-.084.612-.198.9-.342v-6.048zM577.674 510.5v-12.222h3.33c1.188-.024 2.1.213 2.736.711.636.498.954 1.245.954 2.241 0 .696-.171 1.26-.513 1.692a2.547 2.547 0 0 1-1.305.882v.054c.816.06 1.455.327 1.917.801.462.474.693 1.161.693 2.061 0 1.332-.387 2.295-1.161 2.889-.774.594-1.947.891-3.519.891h-3.132zm3.168-7.074c.84 0 1.449-.171 1.827-.513.378-.342.567-.849.567-1.521 0-.66-.195-1.14-.585-1.44-.39-.3-1.029-.45-1.917-.45h-1.566v3.924h1.674zm.288 5.868c.96 0 1.674-.183 2.142-.549.468-.366.702-.987.702-1.863 0-.84-.234-1.443-.702-1.809-.468-.366-1.176-.549-2.124-.549h-1.98v4.77h1.962zm6.534-11.376h1.386V510.5h-1.386v-12.582zm7.146 12.69c-1.164 0-2.046-.366-2.646-1.098-.6-.732-.9-1.788-.9-3.168 0-1.572.339-2.748 1.017-3.528.678-.78 1.635-1.17 2.871-1.17 1.164 0 2.046.363 2.646 1.089.6.726.9 1.773.9 3.141 0 1.584-.339 2.769-1.017 3.555-.678.786-1.635 1.179-2.871 1.179zm.162-1.152c1.524 0 2.286-1.11 2.286-3.33 0-2.22-.756-3.33-2.268-3.33-1.524 0-2.286 1.104-2.286 3.312 0 2.232.756 3.348 2.268 3.348zm9.108 1.152c-1.176 0-2.085-.336-2.727-1.008-.642-.672-.963-1.764-.963-3.276 0-1.608.318-2.79.954-3.546.636-.756 1.596-1.134 2.88-1.134.324 0 .666.033 1.026.099s.666.147.918.243v1.152h-.432a10.33 10.33 0 0 0-.909-.252 4.02 4.02 0 0 0-.873-.09c-.66 0-1.179.261-1.557.783-.378.522-.567 1.359-.567 2.511 0 1.26.207 2.136.621 2.628.414.492 1.017.738 1.809.738.516 0 1.032-.09 1.548-.27h.45v1.17a9.712 9.712 0 0 1-2.178.252zm10.944-.558v.45h-1.368l-3.51-4.086h-.468v4.086h-1.386v-12.582h1.386v7.344h.45l3.258-3.51h1.278v.45l-3.33 3.564 3.69 4.284zm1.98-11.772h1.494v5.274h5.688v-5.274h1.494V510.5h-1.494v-5.706h-5.688v5.706h-1.494v-12.222zm14.49 3.366c1.068 0 1.848.243 2.34.729.492.486.738 1.239.738 2.259v5.868h-1.26v-.756c-.732.576-1.602.864-2.61.864-.792 0-1.422-.219-1.89-.657-.468-.438-.702-1.017-.702-1.737 0-.888.291-1.578.873-2.07.582-.492 1.431-.738 2.547-.738.588 0 1.134.06 1.638.18v-.576c0-.828-.144-1.404-.432-1.728-.288-.324-.792-.486-1.512-.486-.372 0-.735.039-1.089.117-.354.078-.759.189-1.215.333h-.432v-1.152c1.128-.3 2.13-.45 3.006-.45zm-1.98 6.408c0 .432.138.777.414 1.035.276.258.66.387 1.152.387.36 0 .723-.06 1.089-.18s.699-.276.999-.468v-2.142a8.46 8.46 0 0 0-1.89-.198c-1.176 0-1.764.522-1.764 1.566zm9.342 2.538c-.324 0-.705-.03-1.143-.09a7.093 7.093 0 0 1-1.071-.216v-1.152h.432c.372.096.714.171 1.026.225.312.054.654.081 1.026.081.504 0 .9-.114 1.188-.342.288-.228.432-.528.432-.9 0-.432-.144-.756-.432-.972-.288-.216-.732-.438-1.332-.666a9.872 9.872 0 0 1-1.197-.513 2.106 2.106 0 0 1-.774-.72c-.21-.318-.315-.729-.315-1.233 0-.744.252-1.338.756-1.782.504-.444 1.224-.666 2.16-.666.6 0 1.29.108 2.07.324v1.152h-.414c-.672-.216-1.26-.324-1.764-.324-.456 0-.81.102-1.062.306-.252.204-.378.486-.378.846 0 .396.138.693.414.891.276.198.708.405 1.296.621.492.168.894.336 1.206.504.312.168.579.414.801.738.222.324.333.75.333 1.278 0 .816-.27 1.455-.81 1.917-.54.462-1.356.693-2.448.693zm9.504-8.946c.948 0 1.641.252 2.079.756.438.504.657 1.29.657 2.358v5.742h-1.386v-5.454c0-.78-.15-1.341-.45-1.683-.3-.342-.78-.513-1.44-.513-.744 0-1.494.162-2.25.486l.018.126v7.038h-1.386v-12.582h1.386v2.808c0 .492-.012 1.014-.036 1.566a6.24 6.24 0 0 1 1.314-.468c.492-.12.99-.18 1.494-.18z"/><path stroke="#FF5353" d="M566.5 467.5v59h96v-59z"/></g><path fill="#FF5353" fill-rule="nonzero" d="M525.47 352.825h4.011l4.158 8.274a47.814 47.814 0 0 1-.063-2.205v-6.069h3.528V367h-4.011l-4.179-8.274c.042.756.063 1.379.063 1.869V367h-3.507v-14.175zm18.207 14.364c-1.666 0-2.905-.402-3.717-1.208-.812-.805-1.218-2.096-1.218-3.874 0-1.988.437-3.433 1.313-4.337.875-.903 2.166-1.354 3.874-1.354 1.694 0 2.943.399 3.749 1.197.805.798 1.207 2.086 1.207 3.864 0 2.016-.437 3.472-1.313 4.368-.875.896-2.173 1.344-3.895 1.344zm.168-2.688c.294 0 .525-.08.693-.241.168-.162.287-.434.357-.82.07-.385.105-.927.105-1.627 0-.728-.038-1.284-.115-1.67-.077-.385-.203-.654-.379-.808-.175-.154-.416-.231-.724-.231-.434 0-.735.189-.903.567-.168.378-.252 1.078-.252 2.1 0 .728.038 1.288.115 1.68.077.392.203.665.379.819.175.154.416.231.724.231zm15.855-12.075V367h-3.465v-.693c-.868.588-1.778.882-2.73.882-1.218 0-2.135-.399-2.751-1.197-.616-.798-.924-2.1-.924-3.906 0-3.766 1.743-5.649 5.229-5.649.364 0 .637.007.819.021v-4.032h3.822zm-3.822 6.825a6.908 6.908 0 0 0-.63-.021c-.532 0-.931.189-1.197.567-.266.378-.399 1.057-.399 2.037 0 .994.108 1.666.325 2.016.218.35.571.525 1.061.525.28 0 .56-.077.84-.231v-4.893zm10.101-2.835c1.442 0 2.492.371 3.15 1.113.658.742.987 1.918.987 3.528 0 .56-.028 1.092-.084 1.596h-5.187c.028.644.2 1.099.514 1.365.316.266.802.399 1.46.399.42 0 .794-.028 1.124-.084.329-.056.682-.133 1.06-.231h.756v2.73a14.89 14.89 0 0 1-3.339.357c-1.848 0-3.195-.402-4.042-1.208-.848-.805-1.271-2.117-1.271-3.937 0-1.904.392-3.318 1.176-4.242.784-.924 2.016-1.386 3.696-1.386zm-.063 2.289c-.364 0-.63.15-.798.452-.168.3-.259.836-.273 1.606h1.995c.028-.308.042-.518.042-.63 0-.952-.322-1.428-.966-1.428zM575.45 367v-14.175h5.04c1.806 0 3.097.311 3.875.935.777.623 1.165 1.543 1.165 2.761 0 .686-.189 1.284-.567 1.796a3.03 3.03 0 0 1-1.47 1.081v.084c.994.112 1.736.427 2.226.945s.735 1.26.735 2.226c0 1.484-.525 2.58-1.575 3.286-1.05.708-2.695 1.061-4.935 1.061h-4.494zm4.851-8.316c.546 0 .938-.119 1.176-.357s.357-.651.357-1.239c0-.504-.122-.871-.367-1.103-.246-.23-.62-.346-1.124-.346h-.819v3.045h.777zm.126 5.502c.602 0 1.057-.119 1.365-.357.308-.238.462-.637.462-1.197 0-.588-.126-1.004-.378-1.25-.252-.245-.672-.367-1.26-.367h-1.113v3.171h.924z"/><g transform="translate(56 299)"><g fill="#FFF" transform="rotate(45 2.879 10.121)"><path d="M5 0L0 4.999 5 10z"/><circle cx="8.5" cy="5" r="1.5"/></g><g fill="#FFF" transform="rotate(45 -17.127 60.835)"><path d="M5 0L0 4.999 5 10z"/><circle cx="8.5" cy="5" r="1.5"/></g><rect width="22" height="22" x="11.929" y="10.929" fill="#FFF" rx="6"/><path fill="#323232" d="M16.929 15.929h12v12h-12z"/><path fill="#FFF" d="M20.929 19.929h4v4h-4zM8.929 15.929h7v2h-7zM29.929 15.929h7v2h-7z"/><g fill="#FFF"><path d="M28.929 7.929v7h-2v-7zM23.929 7.929v7h-2v-7zM18.929 7.929v7h-2v-7z"/></g><g fill="#FFF"><path d="M28.929 28.929v7h-2v-7zM23.929 28.929v7h-2v-7zM18.929 28.929v7h-2v-7z"/></g><path fill="#FFF" d="M8.929 20.929h7v2h-7zM29.929 20.929h7v2h-7zM8.929 25.929h7v2h-7zM29.929 25.929h7v2h-7z"/></g><g fill="#FFF"><path d="M556.191 308.947c-4.788 0-8.746-.846-9.403-1.947a.626.626 0 0 0-.097.323v4.407c0 1.254 4.253 2.27 9.5 2.27s9.5-1.016 9.5-2.27v-4.407a.627.627 0 0 0-.097-.323c-.657 1.1-4.615 1.947-9.403 1.947m0 8c-4.788 0-8.746-.846-9.403-1.947a.628.628 0 0 0-.097.323v4.406c0 1.255 4.253 2.271 9.5 2.271s9.5-1.016 9.5-2.27v-4.406a.628.628 0 0 0-.097-.324c-.657 1.1-4.615 1.947-9.403 1.947m9.5-17.663c0-1.262-4.253-2.284-9.5-2.284s-9.5 1.022-9.5 2.284v4.432c0 1.262 4.253 2.284 9.5 2.284s9.5-1.022 9.5-2.284v-4.432z"/><g transform="translate(542.5 324.5)"><path d="M5 0L0 4.999 5 10z"/><circle cx="8.5" cy="5" r="1.5"/><circle cx="13.5" cy="5" r="1.5"/></g><g transform="matrix(-1 0 0 1 569.5 329.5)"><path d="M5 0L0 4.999 5 10z"/><circle cx="8.5" cy="5" r="1.5"/><circle cx="13.5" cy="5" r="1.5"/></g></g><g fill="#FFF"><path d="M954.191 308.947c-4.788 0-8.746-.846-9.403-1.947a.626.626 0 0 0-.097.323v4.407c0 1.254 4.253 2.27 9.5 2.27s9.5-1.016 9.5-2.27v-4.407a.627.627 0 0 0-.097-.323c-.657 1.1-4.615 1.947-9.403 1.947m0 8c-4.788 0-8.746-.846-9.403-1.947a.628.628 0 0 0-.097.323v4.406c0 1.255 4.253 2.271 9.5 2.271s9.5-1.016 9.5-2.27v-4.406a.628.628 0 0 0-.097-.324c-.657 1.1-4.615 1.947-9.403 1.947m9.5-17.663c0-1.262-4.253-2.284-9.5-2.284s-9.5 1.022-9.5 2.284v4.432c0 1.262 4.253 2.284 9.5 2.284s9.5-1.022 9.5-2.284v-4.432z"/><g transform="translate(940.5 324.5)"><path d="M5 0L0 4.999 5 10z"/><circle cx="8.5" cy="5" r="1.5"/><circle cx="13.5" cy="5" r="1.5"/></g><g transform="matrix(-1 0 0 1 967.5 329.5)"><path d="M5 0L0 4.999 5 10z"/><circle cx="8.5" cy="5" r="1.5"/><circle cx="13.5" cy="5" r="1.5"/></g></g><g fill="#FFF"><path d="M556.191 40.947c-4.788 0-8.746-.846-9.403-1.947a.626.626 0 0 0-.097.323v4.407c0 1.254 4.253 2.27 9.5 2.27s9.5-1.016 9.5-2.27v-4.407a.627.627 0 0 0-.097-.323c-.657 1.1-4.615 1.947-9.403 1.947m0 8c-4.788 0-8.746-.846-9.403-1.947a.628.628 0 0 0-.097.323v4.406c0 1.255 4.253 2.271 9.5 2.271s9.5-1.016 9.5-2.27v-4.406a.628.628 0 0 0-.097-.324c-.657 1.1-4.615 1.947-9.403 1.947m9.5-17.663c0-1.262-4.253-2.284-9.5-2.284s-9.5 1.022-9.5 2.284v4.432c0 1.262 4.253 2.284 9.5 2.284s9.5-1.022 9.5-2.284v-4.432z"/><g transform="translate(542.5 56.5)"><path d="M5 0L0 4.999 5 10z"/><circle cx="8.5" cy="5" r="1.5"/><circle cx="13.5" cy="5" r="1.5"/></g><g transform="matrix(-1 0 0 1 569.5 61.5)"><path d="M5 0L0 4.999 5 10z"/><circle cx="8.5" cy="5" r="1.5"/><circle cx="13.5" cy="5" r="1.5"/></g></g><g fill="#FFF"><path d="M556.191 577.947c-4.788 0-8.746-.846-9.403-1.947a.626.626 0 0 0-.097.323v4.407c0 1.254 4.253 2.27 9.5 2.27s9.5-1.016 9.5-2.27v-4.407a.627.627 0 0 0-.097-.323c-.657 1.1-4.615 1.947-9.403 1.947m0 8c-4.788 0-8.746-.846-9.403-1.947a.628.628 0 0 0-.097.323v4.406c0 1.255 4.253 2.271 9.5 2.271s9.5-1.016 9.5-2.27v-4.406a.628.628 0 0 0-.097-.324c-.657 1.1-4.615 1.947-9.403 1.947m9.5-17.663c0-1.262-4.253-2.284-9.5-2.284s-9.5 1.022-9.5 2.284v4.432c0 1.262 4.253 2.284 9.5 2.284s9.5-1.022 9.5-2.284v-4.432z"/><g transform="translate(542.5 593.5)"><path d="M5 0L0 4.999 5 10z"/><circle cx="8.5" cy="5" r="1.5"/><circle cx="13.5" cy="5" r="1.5"/></g><g transform="matrix(-1 0 0 1 569.5 598.5)"><path d="M5 0L0 4.999 5 10z"/><circle cx="8.5" cy="5" r="1.5"/><circle cx="13.5" cy="5" r="1.5"/></g></g><path fill="url(#j)" d="M174 328h284.948l7.052 4.063-7.052 3.937H174z"/><path fill="url(#k)" transform="matrix(0 -1 -1 0 761 761)" d="M501 210h84.807l7.193 4.063-7.193 3.937H501z"/><path fill="url(#k)" transform="rotate(90 547 480)" d="M501 476h84.807l7.193 4.063-7.193 3.937H501z"/><path fill="#FF5353" d="M571 169v84.807L566.937 261 563 253.807V169z"/><path fill="#FDD" d="M644 80.5l8 4v-8z"/><path stroke="#FDD" stroke-width="8" d="M652 80.5h139.061C896.741 81.303 956 138.868 956 257.5"/><path fill="#FDD" d="M644 617.5l8-4v8z"/><path stroke="#FDD" stroke-width="8" d="M652 617.5h139.061C896.741 616.697 956 559.132 956 440.5"/><path fill="#FF5353" d="M571 527v-84.807L566.937 435 563 442.193V527zM464 346H181.004L174 350.063l7.004 3.937H464zM854 344H649.004L642 348.063l7.004 3.937H854z"/></g></svg>